<svg width="51" height="51" viewBox="0 0 51 51" fill="none" xmlns="http://www.w3.org/2000/svg">
<circle cx="25.5" cy="25.5" r="25.5" fill="#EBFBF1"/>
<path d="M24.8377 14.7841C25.0301 14.1208 25.9699 14.1208 26.1622 14.7841C26.3314 15.3675 27.1176 15.463 27.4215 14.937C27.7669 14.339 28.6795 14.5639 28.7074 15.254C28.7321 15.8609 29.4726 16.1418 29.8935 15.7038C30.3721 15.2058 31.2042 15.6426 31.0663 16.3193C30.9449 16.9145 31.5968 17.3644 32.1102 17.0399C32.6941 16.6709 33.3975 17.2941 33.1016 17.9182C32.8413 18.467 33.3666 19.0599 33.9428 18.8677C34.598 18.6491 35.1318 19.4226 34.6952 19.9577C34.3111 20.4283 34.6792 21.1296 35.2847 21.0809C35.9731 21.0255 36.3064 21.9042 35.7543 22.3193C35.2688 22.6843 35.4584 23.4533 36.0579 23.5509C36.7396 23.6619 36.8529 24.5948 36.2176 24.8657C35.6588 25.104 35.6588 25.896 36.2176 26.1342C36.8529 26.4051 36.7396 27.3381 36.0579 27.449C35.4584 27.5466 35.2688 28.3157 35.7543 28.6807C36.3064 29.0957 35.9731 29.9745 35.2847 29.9191C34.6792 29.8704 34.3111 30.5717 34.6952 31.0423C35.1318 31.5774 34.598 32.3508 33.9428 32.1323C33.3666 31.9401 32.8413 32.5329 33.1016 33.0818C33.3975 33.7058 32.6941 34.3291 32.1102 33.9601C31.5968 33.6356 30.9449 34.0855 31.0663 34.6807C31.2042 35.3574 30.3721 35.7942 29.8935 35.2962C29.4726 34.8582 28.7321 35.1391 28.7074 35.746C28.6795 36.4361 27.7669 36.661 27.4215 36.063C27.1176 35.537 26.3314 35.6325 26.1622 36.2159C25.9699 36.8792 25.0301 36.8792 24.8377 36.2159C24.6686 35.6325 23.8823 35.537 23.5785 36.063C23.233 36.661 22.3205 36.4361 22.2925 35.746C22.2679 35.1391 21.5273 34.8582 21.1064 35.2962C20.6279 35.7942 19.7957 35.3574 19.9337 34.6807C20.055 34.0855 19.4032 33.6356 18.8897 33.9601C18.3059 34.3291 17.6024 33.7058 17.8983 33.0818C18.1586 32.5329 17.6334 31.9401 17.0572 32.1323C16.402 32.3508 15.8681 31.5774 16.3048 31.0423C16.6888 30.5717 16.3208 29.8704 15.7153 29.9191C15.0269 29.9745 14.6936 29.0957 15.2456 28.6807C15.7311 28.3157 15.5416 27.5466 14.942 27.449C14.2604 27.3381 14.1471 26.4051 14.7824 26.1342C15.3412 25.896 15.3412 25.104 14.7824 24.8657C14.1471 24.5948 14.2604 23.6619 14.942 23.5509C15.5416 23.4533 15.7311 22.6843 15.2456 22.3193C14.6936 21.9042 15.0269 21.0255 15.7153 21.0809C16.3208 21.1296 16.6888 20.4283 16.3048 19.9577C15.8681 19.4226 16.402 18.6491 17.0572 18.8677C17.6334 19.0599 18.1586 18.467 17.8983 17.9182C17.6024 17.2941 18.3059 16.6709 18.8897 17.0399C19.4032 17.3644 20.055 16.9145 19.9337 16.3193C19.7957 15.6426 20.6279 15.2058 21.1064 15.7038C21.5273 16.1418 22.2679 15.8609 22.2925 15.254C22.3205 14.5639 23.233 14.339 23.5785 14.937C23.8823 15.463 24.6686 15.3675 24.8377 14.7841Z" fill="#2CBB62"/>
<rect x="22.278" y="28.8148" width="10.9757" height="1.59993" rx="0.799965" transform="rotate(-45 22.278 28.8148)" fill="white"/>
<rect x="20.9609" y="25.2336" width="5.06461" height="1.59993" rx="0.799965" transform="rotate(45 20.9609 25.2336)" fill="white"/>
</svg>
