<svg width="51" height="52" viewBox="0 0 51 52" fill="none" xmlns="http://www.w3.org/2000/svg">
<circle cx="25.5" cy="26.396" r="25.5" fill="#F4F5F6"/>
<path fill-rule="evenodd" clip-rule="evenodd" d="M16 18.168C15.4477 18.168 15 18.6157 15 19.168V19.4687C15 19.7837 15.1484 20.0803 15.4005 20.2691L24.4005 27.0108C24.7558 27.277 25.2442 27.277 25.5995 27.0108L34.5995 20.2691C34.8516 20.0803 35 19.7837 35 19.4687V19.168C35 18.6157 34.5523 18.168 34 18.168H16ZM15.4682 32.1462V22.2557L24.3907 29.1117C24.75 29.3878 25.25 29.3878 25.6093 29.1117L34.5319 22.2556V32.1462C34.5319 32.6985 34.0842 33.1462 33.5319 33.1462H16.4682C15.9159 33.1462 15.4682 32.6985 15.4682 32.1462Z" fill="#33D871"/>
</svg>
