<svg width="51" height="51" viewBox="0 0 51 51" fill="none" xmlns="http://www.w3.org/2000/svg">
<circle cx="25.5" cy="25.5" r="25.5" fill="#EBFBF1"/>
<circle cx="25.5" cy="25.5" r="14.0516" fill="#33D871"/>
<path d="M27.2973 28.6025C27.2973 28.1221 27.1626 27.7412 26.893 27.46C26.6294 27.1729 26.1782 26.9092 25.5395 26.6689C24.9008 26.4287 24.3501 26.1914 23.8872 25.957C23.4243 25.7168 23.0258 25.4443 22.6919 25.1396C22.3637 24.8291 22.1059 24.4658 21.9184 24.0498C21.7368 23.6338 21.646 23.1387 21.646 22.5645C21.646 21.5742 21.9624 20.7627 22.5952 20.1299C23.228 19.4971 24.0688 19.1279 25.1176 19.0225V17.1416H26.5239V19.0488C27.561 19.1953 28.3725 19.6289 28.9585 20.3496C29.5444 21.0645 29.8374 21.9932 29.8374 23.1357H27.2973C27.2973 22.4326 27.1508 21.9082 26.8579 21.5625C26.5708 21.2109 26.1841 21.0352 25.6977 21.0352C25.2173 21.0352 24.8452 21.1729 24.5815 21.4482C24.3178 21.7178 24.186 22.0928 24.186 22.5732C24.186 23.0186 24.3149 23.376 24.5727 23.6455C24.8305 23.915 25.3081 24.1904 26.0053 24.4717C26.7085 24.7529 27.2856 25.0195 27.7368 25.2715C28.188 25.5176 28.5688 25.7988 28.8794 26.1152C29.1899 26.4258 29.4272 26.7832 29.5913 27.1875C29.7553 27.5859 29.8374 28.0518 29.8374 28.585C29.8374 29.5811 29.5268 30.3896 28.9057 31.0107C28.2846 31.6318 27.4292 31.998 26.3393 32.1094V33.8584H24.9419V32.1182C23.7407 31.9893 22.8091 31.5645 22.1469 30.8438C21.4907 30.1172 21.1626 29.1533 21.1626 27.9521H23.7026C23.7026 28.6494 23.8667 29.1855 24.1948 29.5605C24.5288 29.9297 25.0063 30.1143 25.6274 30.1143C26.143 30.1143 26.5503 29.9795 26.8491 29.71C27.1479 29.4346 27.2973 29.0654 27.2973 28.6025Z" fill="white"/>
</svg>
