<svg width="21" height="21" viewBox="0 0 21 21" fill="none" xmlns="http://www.w3.org/2000/svg">
<path d="M2.22727 0.895996H17.8182C18.4089 0.895996 18.9754 1.13065 19.3931 1.54835C19.8108 1.96604 20.0455 2.53256 20.0455 3.12327V18.7142C20.0455 19.3049 19.8108 19.8714 19.3931 20.2891C18.9754 20.7068 18.4089 20.9415 17.8182 20.9415H2.22727C1.63656 20.9415 1.07005 20.7068 0.652353 20.2891C0.234658 19.8714 0 19.3049 0 18.7142V3.12327C0 2.53256 0.234658 1.96604 0.652353 1.54835C1.07005 1.13065 1.63656 0.895996 2.22727 0.895996ZM16.7045 3.12327H13.9205C12.8867 3.12327 11.8953 3.53392 11.1643 4.26489C10.4334 4.99585 10.0227 5.98725 10.0227 7.021V9.80509H7.79545V13.146H10.0227V20.9415H13.3636V13.146H16.7045V9.80509H13.3636V7.57781C13.3636 7.28246 13.481 6.9992 13.6898 6.79035C13.8987 6.58151 14.1819 6.46418 14.4773 6.46418H16.7045V3.12327Z" fill="#AFB3B7"/>
</svg>
