<svg width="23" height="24" viewBox="0 0 23 24" fill="none" xmlns="http://www.w3.org/2000/svg">
<path d="M6.45909 0.895996H15.8136C19.3773 0.895996 22.2727 3.79145 22.2727 7.35509V16.7096C22.2727 18.4227 21.5922 20.0656 20.3809 21.2769C19.1696 22.4882 17.5267 23.1687 15.8136 23.1687H6.45909C2.89545 23.1687 0 20.2733 0 16.7096V7.35509C0 5.64203 0.68051 3.99913 1.89182 2.78782C3.10314 1.57651 4.74603 0.895996 6.45909 0.895996ZM6.23636 3.12327C5.17309 3.12327 4.15336 3.54565 3.40151 4.2975C2.64966 5.04936 2.22727 6.06908 2.22727 7.13236V16.9324C2.22727 19.1485 4.02023 20.9415 6.23636 20.9415H16.0364C17.0996 20.9415 18.1194 20.5191 18.8712 19.7672C19.6231 19.0154 20.0455 17.9956 20.0455 16.9324V7.13236C20.0455 4.91622 18.2525 3.12327 16.0364 3.12327H6.23636ZM16.983 4.79372C17.3521 4.79372 17.7062 4.94038 17.9673 5.20144C18.2283 5.4625 18.375 5.81658 18.375 6.18577C18.375 6.55496 18.2283 6.90903 17.9673 7.17009C17.7062 7.43115 17.3521 7.57781 16.983 7.57781C16.6138 7.57781 16.2597 7.43115 15.9986 7.17009C15.7376 6.90903 15.5909 6.55496 15.5909 6.18577C15.5909 5.81658 15.7376 5.4625 15.9986 5.20144C16.2597 4.94038 16.6138 4.79372 16.983 4.79372ZM11.1364 6.46418C12.6131 6.46418 14.0294 7.05082 15.0737 8.09506C16.1179 9.1393 16.7045 10.5556 16.7045 12.0324C16.7045 13.5091 16.1179 14.9254 15.0737 15.9697C14.0294 17.0139 12.6131 17.6005 11.1364 17.6005C9.65959 17.6005 8.2433 17.0139 7.19906 15.9697C6.15483 14.9254 5.56818 13.5091 5.56818 12.0324C5.56818 10.5556 6.15483 9.1393 7.19906 8.09506C8.2433 7.05082 9.65959 6.46418 11.1364 6.46418ZM11.1364 8.69145C10.2503 8.69145 9.40053 9.04344 8.77398 9.66998C8.14744 10.2965 7.79545 11.1463 7.79545 12.0324C7.79545 12.9184 8.14744 13.7682 8.77398 14.3947C9.40053 15.0213 10.2503 15.3733 11.1364 15.3733C12.0224 15.3733 12.8722 15.0213 13.4987 14.3947C14.1253 13.7682 14.4773 12.9184 14.4773 12.0324C14.4773 11.1463 14.1253 10.2965 13.4987 9.66998C12.8722 9.04344 12.0224 8.69145 11.1364 8.69145Z" fill="#AFB3B7"/>
</svg>
