<svg width="51" height="52" viewBox="0 0 51 52" fill="none" xmlns="http://www.w3.org/2000/svg">
<circle cx="25.5" cy="26.397" r="25.5" fill="#F4F5F6"/>
<path d="M26.9744 22.1094C26.9744 23.2139 27.8698 24.1094 28.9744 24.1094L33.0442 24.1094C34.1488 24.1094 35.0442 25.0048 35.0442 26.1094L35.0442 34.7541C35.0442 35.8587 34.1488 36.7541 33.0442 36.7541L17.9558 36.7541C16.8513 36.7541 15.9558 35.8587 15.9558 34.7541L15.9558 18.0396C15.9558 16.935 16.8513 16.0396 17.9559 16.0396L24.9744 16.0398C26.079 16.0398 26.9744 16.9352 26.9744 18.0398L26.9744 22.1094Z" fill="#33D871"/>
<path d="M28.88 15.0396L36.0442 22.3173H29.88C29.3277 22.3173 28.88 21.8696 28.88 21.3173V15.0396Z" fill="#33D871"/>
</svg>
