<svg width="180" height="36" viewBox="0 0 180 36" fill="none" xmlns="http://www.w3.org/2000/svg">
<path d="M60.168 22.918H55.8203V20.1758H60.168C60.8398 20.1758 61.3867 20.0664 61.8086 19.8477C62.2305 19.6211 62.5391 19.3086 62.7344 18.9102C62.9297 18.5117 63.0273 18.0625 63.0273 17.5625C63.0273 17.0547 62.9297 16.582 62.7344 16.1445C62.5391 15.707 62.2305 15.3555 61.8086 15.0898C61.3867 14.8242 60.8398 14.6914 60.168 14.6914H57.0391V29H53.5234V11.9375H60.168C61.5039 11.9375 62.6484 12.1797 63.6016 12.6641C64.5625 13.1406 65.2969 13.8008 65.8047 14.6445C66.3125 15.4883 66.5664 16.4531 66.5664 17.5391C66.5664 18.6406 66.3125 19.5938 65.8047 20.3984C65.2969 21.2031 64.5625 21.8242 63.6016 22.2617C62.6484 22.6992 61.5039 22.918 60.168 22.918ZM74.7644 26.1406V20.4922C74.7644 20.0859 74.698 19.7383 74.5652 19.4492C74.4323 19.1523 74.2253 18.9219 73.9441 18.7578C73.6706 18.5938 73.3152 18.5117 72.8777 18.5117C72.5027 18.5117 72.1784 18.5781 71.905 18.7109C71.6316 18.8359 71.4206 19.0195 71.2722 19.2617C71.1237 19.4961 71.0495 19.7734 71.0495 20.0938H67.6745C67.6745 19.5547 67.7995 19.043 68.0495 18.5586C68.2995 18.0742 68.6628 17.6484 69.1394 17.2812C69.6159 16.9062 70.1823 16.6133 70.8386 16.4023C71.5027 16.1914 72.2448 16.0859 73.0652 16.0859C74.0495 16.0859 74.9245 16.25 75.6902 16.5781C76.4558 16.9062 77.0573 17.3984 77.4948 18.0547C77.9402 18.7109 78.1628 19.5312 78.1628 20.5156V25.9414C78.1628 26.6367 78.2058 27.207 78.2917 27.6523C78.3777 28.0898 78.5027 28.4727 78.6667 28.8008V29H75.2566C75.0925 28.6562 74.9675 28.2266 74.8816 27.7109C74.8034 27.1875 74.7644 26.6641 74.7644 26.1406ZM75.2097 21.2773L75.2331 23.1875H73.3464C72.9011 23.1875 72.5144 23.2383 72.1862 23.3398C71.8581 23.4414 71.5886 23.5859 71.3777 23.7734C71.1667 23.9531 71.0105 24.1641 70.9089 24.4062C70.8152 24.6484 70.7683 24.9141 70.7683 25.2031C70.7683 25.4922 70.8347 25.7539 70.9675 25.9883C71.1003 26.2148 71.2917 26.3945 71.5417 26.5273C71.7917 26.6523 72.0847 26.7148 72.4206 26.7148C72.9284 26.7148 73.3698 26.6133 73.7448 26.4102C74.1198 26.207 74.4089 25.957 74.612 25.6602C74.823 25.3633 74.9323 25.082 74.9402 24.8164L75.8308 26.2461C75.7058 26.5664 75.5339 26.8984 75.3152 27.2422C75.1042 27.5859 74.8347 27.9102 74.5066 28.2148C74.1784 28.5117 73.7839 28.7578 73.323 28.9531C72.862 29.1406 72.3152 29.2344 71.6823 29.2344C70.8777 29.2344 70.1472 29.0742 69.4909 28.7539C68.8425 28.4258 68.3269 27.9766 67.9441 27.4062C67.5691 26.8281 67.3816 26.1719 67.3816 25.4375C67.3816 24.7734 67.5066 24.1836 67.7566 23.668C68.0066 23.1523 68.3737 22.7188 68.8581 22.3672C69.3503 22.0078 69.9636 21.7383 70.698 21.5586C71.4323 21.3711 72.2839 21.2773 73.2527 21.2773H75.2097ZM83.4194 18.7578V33.875H80.0444V16.3203H83.1733L83.4194 18.7578ZM91.4467 22.5195V22.7656C91.4467 23.6875 91.3373 24.543 91.1186 25.332C90.9077 26.1211 90.5952 26.8086 90.1811 27.3945C89.767 27.9727 89.2514 28.4258 88.6342 28.7539C88.0248 29.0742 87.3217 29.2344 86.5248 29.2344C85.7514 29.2344 85.0795 29.0781 84.5092 28.7656C83.9389 28.4531 83.4584 28.0156 83.0678 27.4531C82.685 26.8828 82.3764 26.2227 82.142 25.4727C81.9077 24.7227 81.728 23.918 81.603 23.0586V22.4141C81.728 21.4922 81.9077 20.6484 82.142 19.8828C82.3764 19.1094 82.685 18.4414 83.0678 17.8789C83.4584 17.3086 83.935 16.8672 84.4975 16.5547C85.0678 16.2422 85.7358 16.0859 86.5014 16.0859C87.3061 16.0859 88.0131 16.2383 88.6225 16.543C89.2397 16.8477 89.7553 17.2852 90.1694 17.8555C90.5912 18.4258 90.9077 19.1055 91.1186 19.8945C91.3373 20.6836 91.4467 21.5586 91.4467 22.5195ZM88.06 22.7656V22.5195C88.06 21.9805 88.0131 21.4844 87.9194 21.0312C87.8334 20.5703 87.6928 20.168 87.4975 19.8242C87.31 19.4805 87.06 19.2148 86.7475 19.0273C86.4428 18.832 86.0717 18.7344 85.6342 18.7344C85.1733 18.7344 84.7787 18.8086 84.4506 18.957C84.1303 19.1055 83.8686 19.3203 83.6655 19.6016C83.4623 19.8828 83.31 20.2188 83.2084 20.6094C83.1069 21 83.0444 21.4414 83.0209 21.9336V23.5625C83.06 24.1406 83.1694 24.6602 83.3491 25.1211C83.5287 25.5742 83.8061 25.9336 84.1811 26.1992C84.5561 26.4648 85.0483 26.5977 85.6577 26.5977C86.103 26.5977 86.478 26.5 86.7827 26.3047C87.0873 26.1016 87.3334 25.8242 87.5209 25.4727C87.7162 25.1211 87.853 24.7148 87.9311 24.2539C88.017 23.793 88.06 23.2969 88.06 22.7656ZM98.6603 29.2344C97.6759 29.2344 96.7931 29.0781 96.0119 28.7656C95.2306 28.4453 94.5666 28.0039 94.0197 27.4414C93.4806 26.8789 93.0666 26.2266 92.7775 25.4844C92.4884 24.7344 92.3439 23.9375 92.3439 23.0938V22.625C92.3439 21.6641 92.4806 20.7852 92.7541 19.9883C93.0275 19.1914 93.4181 18.5 93.9259 17.9141C94.4416 17.3281 95.0666 16.8789 95.8009 16.5664C96.5353 16.2461 97.3634 16.0859 98.2853 16.0859C99.1838 16.0859 99.9806 16.2344 100.676 16.5312C101.371 16.8281 101.953 17.25 102.422 17.7969C102.899 18.3438 103.258 19 103.5 19.7656C103.742 20.5234 103.863 21.3672 103.863 22.2969V23.7031H93.7853V21.4531H100.547V21.1953C100.547 20.7266 100.461 20.3086 100.289 19.9414C100.125 19.5664 99.8752 19.2695 99.5392 19.0508C99.2033 18.832 98.7736 18.7227 98.2502 18.7227C97.8048 18.7227 97.422 18.8203 97.1017 19.0156C96.7814 19.2109 96.5197 19.4844 96.3166 19.8359C96.1213 20.1875 95.9728 20.6016 95.8713 21.0781C95.7775 21.5469 95.7306 22.0625 95.7306 22.625V23.0938C95.7306 23.6016 95.8009 24.0703 95.9416 24.5C96.09 24.9297 96.297 25.3008 96.5627 25.6133C96.8361 25.9258 97.1642 26.168 97.547 26.3398C97.9377 26.5117 98.3791 26.5977 98.8713 26.5977C99.4806 26.5977 100.047 26.4805 100.57 26.2461C101.102 26.0039 101.559 25.6406 101.942 25.1562L103.582 26.9375C103.317 27.3203 102.953 27.6875 102.492 28.0391C102.039 28.3906 101.492 28.6797 100.852 28.9062C100.211 29.125 99.4806 29.2344 98.6603 29.2344ZM108.44 19.0859V29H105.065V16.3203H108.241L108.44 19.0859ZM112.261 16.2383L112.202 19.3672C112.038 19.3438 111.839 19.3242 111.604 19.3086C111.378 19.2852 111.171 19.2734 110.983 19.2734C110.507 19.2734 110.093 19.3359 109.741 19.4609C109.397 19.5781 109.108 19.7539 108.874 19.9883C108.647 20.2227 108.475 20.5078 108.358 20.8438C108.249 21.1797 108.186 21.5625 108.171 21.9922L107.491 21.7812C107.491 20.9609 107.573 20.207 107.737 19.5195C107.901 18.8242 108.14 18.2188 108.452 17.7031C108.772 17.1875 109.163 16.7891 109.624 16.5078C110.085 16.2266 110.612 16.0859 111.206 16.0859C111.393 16.0859 111.585 16.1016 111.78 16.1328C111.975 16.1562 112.136 16.1914 112.261 16.2383ZM116.064 11.9375V29H113.802V11.9375H116.064ZM126.365 11.9375L119.275 19.8945L115.291 24.0312L114.916 21.6172L117.916 18.3125L123.646 11.9375H126.365ZM124.185 29L117.869 20.6797L119.216 18.8867L126.88 29H124.185ZM135.301 26.832V20.3047C135.301 19.8047 135.2 19.3711 134.996 19.0039C134.801 18.6289 134.504 18.3398 134.106 18.1367C133.707 17.9336 133.215 17.832 132.629 17.832C132.082 17.832 131.602 17.9258 131.188 18.1133C130.782 18.3008 130.461 18.5469 130.227 18.8516C130 19.1562 129.887 19.4844 129.887 19.8359H127.719C127.719 19.3828 127.836 18.9336 128.071 18.4883C128.305 18.043 128.641 17.6406 129.078 17.2812C129.524 16.9141 130.055 16.625 130.672 16.4141C131.297 16.1953 131.993 16.0859 132.758 16.0859C133.68 16.0859 134.493 16.2422 135.196 16.5547C135.907 16.8672 136.461 17.3398 136.86 17.9727C137.266 18.5977 137.469 19.3828 137.469 20.3281V26.2344C137.469 26.6562 137.504 27.1055 137.575 27.582C137.653 28.0586 137.766 28.4688 137.914 28.8125V29H135.653C135.543 28.75 135.457 28.418 135.395 28.0039C135.332 27.582 135.301 27.1914 135.301 26.832ZM135.676 21.3125L135.7 22.8359H133.508C132.891 22.8359 132.34 22.8867 131.856 22.9883C131.371 23.082 130.965 23.2266 130.637 23.4219C130.309 23.6172 130.059 23.8633 129.887 24.1602C129.715 24.4492 129.629 24.7891 129.629 25.1797C129.629 25.5781 129.719 25.9414 129.899 26.2695C130.078 26.5977 130.348 26.8594 130.707 27.0547C131.075 27.2422 131.524 27.3359 132.055 27.3359C132.719 27.3359 133.305 27.1953 133.813 26.9141C134.321 26.6328 134.723 26.2891 135.02 25.8828C135.325 25.4766 135.489 25.082 135.512 24.6992L136.438 25.7422C136.383 26.0703 136.235 26.4336 135.993 26.832C135.75 27.2305 135.426 27.6133 135.02 27.9805C134.621 28.3398 134.145 28.6406 133.59 28.8828C133.043 29.1172 132.426 29.2344 131.739 29.2344C130.879 29.2344 130.125 29.0664 129.477 28.7305C128.836 28.3945 128.336 27.9453 127.977 27.3828C127.625 26.8125 127.45 26.1758 127.45 25.4727C127.45 24.793 127.582 24.1953 127.848 23.6797C128.114 23.1562 128.496 22.7227 128.996 22.3789C129.496 22.0273 130.098 21.7617 130.801 21.582C131.504 21.4023 132.289 21.3125 133.157 21.3125H135.676ZM142.327 18.3125V29H140.159V16.3203H142.269L142.327 18.3125ZM146.288 16.25L146.276 18.2656C146.097 18.2266 145.925 18.2031 145.761 18.1953C145.605 18.1797 145.425 18.1719 145.222 18.1719C144.722 18.1719 144.28 18.25 143.897 18.4062C143.515 18.5625 143.19 18.7812 142.925 19.0625C142.659 19.3438 142.448 19.6797 142.292 20.0703C142.144 20.4531 142.046 20.875 141.999 21.3359L141.39 21.6875C141.39 20.9219 141.464 20.2031 141.612 19.5312C141.769 18.8594 142.007 18.2656 142.327 17.75C142.647 17.2266 143.054 16.8203 143.546 16.5312C144.046 16.2344 144.64 16.0859 145.327 16.0859C145.483 16.0859 145.663 16.1055 145.866 16.1445C146.069 16.1758 146.21 16.2109 146.288 16.25ZM149.728 18.8398V29H147.549V16.3203H149.611L149.728 18.8398ZM149.283 22.1797L148.275 22.1445C148.283 21.2773 148.396 20.4766 148.615 19.7422C148.834 19 149.158 18.3555 149.588 17.8086C150.017 17.2617 150.552 16.8398 151.193 16.543C151.834 16.2383 152.576 16.0859 153.42 16.0859C154.013 16.0859 154.56 16.1719 155.06 16.3438C155.56 16.5078 155.994 16.7695 156.361 17.1289C156.728 17.4883 157.013 17.9492 157.217 18.5117C157.42 19.0742 157.521 19.7539 157.521 20.5508V29H155.353V20.6562C155.353 19.9922 155.24 19.4609 155.013 19.0625C154.795 18.6641 154.482 18.375 154.076 18.1953C153.67 18.0078 153.193 17.9141 152.646 17.9141C152.006 17.9141 151.47 18.0273 151.041 18.2539C150.611 18.4805 150.267 18.793 150.01 19.1914C149.752 19.5898 149.564 20.0469 149.447 20.5625C149.338 21.0703 149.283 21.6094 149.283 22.1797ZM157.498 20.9844L156.045 21.4297C156.052 20.7344 156.166 20.0664 156.385 19.4258C156.611 18.7852 156.935 18.2148 157.357 17.7148C157.787 17.2148 158.314 16.8203 158.939 16.5312C159.564 16.2344 160.279 16.0859 161.084 16.0859C161.763 16.0859 162.365 16.1758 162.888 16.3555C163.42 16.5352 163.865 16.8125 164.224 17.1875C164.592 17.5547 164.869 18.0273 165.056 18.6055C165.244 19.1836 165.338 19.8711 165.338 20.668V29H163.158V20.6445C163.158 19.9336 163.045 19.3828 162.818 18.9922C162.599 18.5938 162.287 18.3164 161.881 18.1602C161.482 17.9961 161.006 17.9141 160.451 17.9141C159.974 17.9141 159.552 17.9961 159.185 18.1602C158.818 18.3242 158.51 18.5508 158.26 18.8398C158.01 19.1211 157.818 19.4453 157.685 19.8125C157.56 20.1797 157.498 20.5703 157.498 20.9844ZM175.375 26.832V20.3047C175.375 19.8047 175.274 19.3711 175.071 19.0039C174.875 18.6289 174.579 18.3398 174.18 18.1367C173.782 17.9336 173.29 17.832 172.704 17.832C172.157 17.832 171.676 17.9258 171.262 18.1133C170.856 18.3008 170.536 18.5469 170.301 18.8516C170.075 19.1562 169.961 19.4844 169.961 19.8359H167.793C167.793 19.3828 167.911 18.9336 168.145 18.4883C168.379 18.043 168.715 17.6406 169.153 17.2812C169.598 16.9141 170.129 16.625 170.747 16.4141C171.372 16.1953 172.067 16.0859 172.832 16.0859C173.754 16.0859 174.567 16.2422 175.27 16.5547C175.981 16.8672 176.536 17.3398 176.934 17.9727C177.34 18.5977 177.543 19.3828 177.543 20.3281V26.2344C177.543 26.6562 177.579 27.1055 177.649 27.582C177.727 28.0586 177.84 28.4688 177.989 28.8125V29H175.727C175.618 28.75 175.532 28.418 175.469 28.0039C175.407 27.582 175.375 27.1914 175.375 26.832ZM175.75 21.3125L175.774 22.8359H173.582C172.965 22.8359 172.415 22.8867 171.93 22.9883C171.446 23.082 171.04 23.2266 170.711 23.4219C170.383 23.6172 170.133 23.8633 169.961 24.1602C169.79 24.4492 169.704 24.7891 169.704 25.1797C169.704 25.5781 169.793 25.9414 169.973 26.2695C170.153 26.5977 170.422 26.8594 170.782 27.0547C171.149 27.2422 171.598 27.3359 172.129 27.3359C172.793 27.3359 173.379 27.1953 173.887 26.9141C174.395 26.6328 174.797 26.2891 175.094 25.8828C175.399 25.4766 175.563 25.082 175.586 24.6992L176.512 25.7422C176.457 26.0703 176.309 26.4336 176.067 26.832C175.825 27.2305 175.5 27.6133 175.094 27.9805C174.696 28.3398 174.219 28.6406 173.665 28.8828C173.118 29.1172 172.5 29.2344 171.813 29.2344C170.954 29.2344 170.2 29.0664 169.551 28.7305C168.911 28.3945 168.411 27.9453 168.051 27.3828C167.7 26.8125 167.524 26.1758 167.524 25.4727C167.524 24.793 167.657 24.1953 167.922 23.6797C168.188 23.1562 168.571 22.7227 169.071 22.3789C169.571 22.0273 170.172 21.7617 170.875 21.582C171.579 21.4023 172.364 21.3125 173.231 21.3125H175.75Z" fill="#202A37"/>
<path d="M9.81818 27.3951L0 36V14.2244C0 8.9561 7.23197 5.73218 10.8517 4.39024C14.6411 2.98537 24.1723 0.409756 28.7656 0C29.512 1.58049 31.7544 5.17847 32.8995 7.90244C34.4498 11.5902 35.7703 15.8634 36 18.7902V36C36 36 22.9376 25.8437 20.8421 23.7073C18.9474 21.7756 16.1914 19.3171 16.0191 17.0341C15.8584 14.9041 17.1518 13.1448 17.7416 12.4683C19.1196 10.8878 22.7368 8.25366 22.7368 8.25366C22.7368 8.25366 19.2919 12.4683 18.4306 14.7512C18.1342 15.537 17.5694 17.7366 19.2919 19.4927C22.0478 22.3024 23.8906 23.5966 25.8373 25.1122C28.0766 23.7073 29.6268 23.0049 32.2105 20.1951C34.3285 17.8919 30.1435 7.37561 26.8708 2.98537C21.7608 4.03902 10.8517 6.63805 8.09569 8.60488C5.33971 10.5717 2.92823 15.278 6.7177 19.8439C10.5072 24.4098 33.0718 36 33.0718 36H4.65072L11.5407 29.8537C11.5407 29.8537 12.8842 29.1512 12.0574 27.7463C11.2306 26.3415 9.81818 27.3951 9.81818 27.3951Z" fill="#33D871"/>
</svg>
