<svg width="280" height="456" viewBox="0 0 280 456" fill="none" xmlns="http://www.w3.org/2000/svg">
<g filter="url(#filter0_d_1_235)">
<rect x="31.8906" y="28.0509" width="184.162" height="377.822" rx="27.4396" transform="rotate(-5 31.8906 28.0509)" fill="url(#paint0_linear_1_235)"/>
<rect x="31.8906" y="28.0509" width="184.162" height="377.822" rx="27.4396" transform="rotate(-5 31.8906 28.0509)" fill="url(#paint1_linear_1_235)" fill-opacity="0.5"/>
</g>
<g clip-path="url(#clip0_1_235)">
<path fill-rule="evenodd" clip-rule="evenodd" d="M42.9755 51.8218C42.1193 42.036 49.3583 33.409 59.1441 32.5528L189.82 21.1201C199.606 20.264 208.233 27.5029 209.089 37.2887L237.458 361.543C238.314 371.329 231.075 379.956 221.289 380.812L90.613 392.245C80.8272 393.101 72.2002 385.862 71.3441 376.076L42.9755 51.8218Z" fill="#4A535D"/>
<g filter="url(#filter1_d_1_235)">
<rect x="82.3746" y="328.689" width="136.511" height="31.1264" rx="4.44662" transform="rotate(-5 82.3746 328.689)" fill="#33D871"/>
</g>
<path d="M143.096 338.455C142.982 337.144 143.528 336.46 144.402 336.383C145.284 336.306 145.808 336.918 145.864 337.55L146.733 337.474L146.729 337.431C146.641 336.418 145.778 335.478 144.329 335.605C142.884 335.731 142.047 336.772 142.2 338.524L142.266 339.277C142.419 341.025 143.409 341.88 144.863 341.752C146.372 341.62 147 340.528 146.922 339.628L146.917 339.581L146.048 339.657C146.104 340.297 145.699 340.895 144.82 340.971C143.921 341.05 143.276 340.514 143.161 339.194L143.096 338.455ZM148.148 341.343L149.018 341.267L148.474 335.05L147.604 335.127L148.148 341.343ZM151.731 336.357C150.429 336.47 149.805 337.458 149.913 338.691L149.946 339.071C150.057 340.339 150.841 341.186 152.144 341.072C153.441 340.958 154.058 339.989 153.947 338.721L153.914 338.336C153.806 337.104 153.024 336.243 151.731 336.357ZM151.79 337.075C152.529 337.01 152.961 337.561 153.037 338.435L153.068 338.785C153.144 339.65 152.82 340.28 152.076 340.345C151.336 340.41 150.898 339.843 150.823 338.982L150.792 338.631C150.716 337.762 151.05 337.14 151.79 337.075ZM154.752 337.5C154.824 338.331 155.536 338.548 156.391 338.647C157.02 338.714 157.551 338.759 157.594 339.248C157.625 339.607 157.358 339.936 156.713 339.992C156.147 340.042 155.786 339.812 155.696 339.427L154.844 339.502C154.915 340.319 155.652 340.765 156.712 340.672C157.832 340.574 158.517 339.982 158.437 339.065C158.36 338.191 157.655 338 156.789 337.924C156.262 337.874 155.631 337.833 155.588 337.34C155.552 336.929 155.891 336.668 156.397 336.624C157.054 336.566 157.295 336.925 157.35 337.251L158.146 337.182C158.077 336.394 157.441 335.857 156.364 335.951C155.46 336.03 154.666 336.523 154.752 337.5ZM161.349 340.266C162.43 340.172 162.973 339.501 163.06 338.744L162.216 338.817C162.122 339.235 161.806 339.516 161.305 339.56C160.617 339.62 160.145 339.112 160.074 338.303L160.066 338.208L163.047 337.947L163.009 337.515C162.898 336.243 162.109 335.449 160.902 335.554C159.699 335.659 159.046 336.558 159.155 337.808L159.197 338.288C159.313 339.616 160.142 340.372 161.349 340.266ZM160.01 337.568L160.009 337.555C159.95 336.88 160.318 336.307 160.967 336.25C161.603 336.195 162.069 336.69 162.129 337.369L162.13 337.382L160.01 337.568Z" fill="white"/>
<path d="M97.1805 239.648L96.64 239.696L96.9327 243.042C97.0238 244.082 97.7868 244.757 98.9597 244.654C100.136 244.551 100.767 243.755 100.676 242.714L100.383 239.368L99.8427 239.416L100.129 242.692C100.201 243.508 99.7323 244.083 98.916 244.154C98.0997 244.225 97.5386 243.741 97.4672 242.925L97.1805 239.648ZM101.973 244.283L102.513 244.236L102.307 241.879C102.259 241.327 102.516 240.793 103.222 240.732C103.825 240.679 104.243 241.009 104.301 241.667L104.51 244.061L105.051 244.014L104.834 241.539C104.752 240.605 104.116 240.153 103.322 240.223C102.69 240.278 102.358 240.64 102.237 240.91L102.223 240.912L102.177 240.386L101.636 240.433L101.973 244.283ZM105.753 241.162C105.813 241.85 106.416 242.008 107.155 242.103C107.731 242.171 108.158 242.223 108.198 242.679C108.23 243.043 107.953 243.356 107.339 243.41C106.777 243.459 106.444 243.217 106.362 242.869L105.833 242.915C105.89 243.577 106.494 243.95 107.336 243.877C108.211 243.8 108.796 243.33 108.729 242.569C108.663 241.812 108.022 241.686 107.294 241.617C106.819 241.566 106.32 241.502 106.281 241.057C106.245 240.645 106.584 240.404 107.065 240.362C107.705 240.306 107.932 240.66 107.977 240.96L108.488 240.916C108.436 240.313 107.955 239.817 107.047 239.897C106.315 239.961 105.684 240.372 105.753 241.162ZM112.428 239.489L111.884 239.537L112.093 241.923C112.148 242.555 111.782 242.988 111.179 243.04C110.635 243.088 110.189 242.864 110.125 242.136L109.913 239.709L109.372 239.756L109.598 242.338C109.675 243.216 110.285 243.619 111.079 243.549C111.704 243.495 112.048 243.187 112.156 242.862L112.178 242.86L112.224 243.386L112.765 243.339L112.428 239.489ZM115.649 243.149C116.565 243.069 117.128 242.342 117.031 241.235L116.994 240.816C116.895 239.68 116.206 239.095 115.309 239.174C114.783 239.22 114.371 239.552 114.212 239.885L114.197 239.886L114.023 237.904L113.487 237.951L113.949 243.235L114.46 243.191L114.408 242.591L114.422 242.59C114.677 242.96 115.072 243.2 115.649 243.149ZM115.571 242.671C114.865 242.733 114.399 242.281 114.324 241.428L114.295 241.089C114.221 240.244 114.601 239.721 115.307 239.66C115.914 239.606 116.381 240.04 116.457 240.9L116.487 241.246C116.563 242.11 116.174 242.618 115.571 242.671ZM117.792 240.109C117.852 240.797 118.455 240.955 119.193 241.05C119.77 241.118 120.197 241.17 120.236 241.625C120.268 241.989 119.992 242.303 119.378 242.356C118.815 242.406 118.483 242.164 118.401 241.816L117.871 241.862C117.929 242.524 118.532 242.897 119.374 242.824C120.249 242.747 120.834 242.277 120.768 241.516C120.702 240.759 120.061 240.633 119.332 240.563C118.857 240.512 118.359 240.448 118.32 240.004C118.284 239.592 118.622 239.351 119.104 239.309C119.744 239.253 119.971 239.607 120.016 239.907L120.527 239.862C120.474 239.259 119.994 238.764 119.085 238.844C118.354 238.908 117.723 239.318 117.792 240.109ZM121.497 240.826C121.586 241.848 122.22 242.575 123.224 242.487C124.114 242.409 124.524 241.891 124.599 241.266L124.059 241.313C124.013 241.64 123.744 241.945 123.225 241.99C122.571 242.047 122.107 241.573 122.037 240.782L122.004 240.396C121.932 239.58 122.287 239.056 122.956 238.998C123.412 238.958 123.767 239.249 123.882 239.587L124.422 239.54C124.336 238.981 123.759 238.435 122.876 238.512C121.895 238.598 121.37 239.374 121.461 240.414L121.497 240.826ZM125.616 242.214L126.156 242.167L125.947 239.773C125.898 239.211 126.09 238.742 126.782 238.682C126.896 238.672 127.017 238.665 127.081 238.67L127.037 238.166C126.962 238.166 126.881 238.165 126.804 238.172C126.234 238.222 125.974 238.552 125.878 238.812L125.863 238.814L125.82 238.317L125.279 238.365L125.616 242.214ZM128.282 241.981L128.822 241.934L128.486 238.084L127.945 238.131L128.282 241.981ZM127.767 237.202C127.785 237.408 127.965 237.559 128.164 237.542C128.37 237.524 128.521 237.344 128.503 237.138C128.485 236.936 128.305 236.785 128.099 236.803C127.901 236.82 127.75 237 127.767 237.202ZM131.703 241.745C132.597 241.667 133.182 240.941 133.084 239.823L133.049 239.423C132.951 238.301 132.245 237.692 131.381 237.768C130.826 237.816 130.462 238.141 130.279 238.505L130.264 238.507L130.214 237.933L129.703 237.978L130.156 243.162L130.693 243.115L130.529 241.244L130.544 241.242C130.783 241.559 131.181 241.791 131.703 241.745ZM131.639 241.265C130.948 241.326 130.484 240.814 130.414 240.005L130.385 239.674C130.317 238.898 130.676 238.307 131.36 238.248C132.004 238.191 132.437 238.654 132.51 239.492L132.539 239.819C132.616 240.705 132.238 241.213 131.639 241.265ZM134.137 237.59L133.611 237.636L133.651 238.095L134.177 238.049L134.382 240.388C134.447 241.131 134.646 241.461 135.525 241.385C135.654 241.373 135.781 241.347 135.835 241.332L135.796 240.887C135.742 240.899 135.687 240.904 135.621 240.909C135.132 240.952 134.967 240.848 134.925 240.374L134.718 238.002L135.505 237.933L135.464 237.474L134.678 237.542L134.593 236.575L134.052 236.623L134.137 237.59ZM136.82 241.234L137.36 241.187L137.023 237.337L136.483 237.384L136.82 241.234ZM136.305 236.455C136.323 236.661 136.503 236.812 136.702 236.795C136.908 236.777 137.059 236.597 137.041 236.391C137.023 236.189 136.843 236.038 136.637 236.056C136.439 236.073 136.288 236.253 136.305 236.455ZM139.695 237.04C138.647 237.132 138.133 237.944 138.223 238.977L138.256 239.356C138.347 240.393 138.991 241.107 140.043 241.015C141.094 240.923 141.601 240.108 141.51 239.071L141.477 238.693C141.387 237.659 140.739 236.949 139.695 237.04ZM139.736 237.515C140.42 237.455 140.866 237.931 140.939 238.766L140.967 239.089C141.04 239.928 140.684 240.474 140 240.534C139.313 240.594 138.867 240.114 138.794 239.279L138.766 238.956C138.693 238.121 139.049 237.575 139.736 237.515ZM142.677 240.722L143.218 240.675L143.012 238.318C142.963 237.766 143.22 237.232 143.926 237.17C144.529 237.118 144.947 237.448 145.005 238.106L145.214 240.5L145.755 240.453L145.538 237.978C145.457 237.044 144.821 236.592 144.026 236.662C143.394 236.717 143.063 237.079 142.942 237.349L142.927 237.351L142.881 236.825L142.34 236.872L142.677 240.722ZM148.377 240.223L148.917 240.176L148.708 237.782C148.658 237.22 148.851 236.751 149.542 236.69C149.656 236.68 149.778 236.673 149.841 236.679L149.797 236.175C149.723 236.174 149.641 236.174 149.564 236.181C148.994 236.231 148.734 236.561 148.638 236.821L148.624 236.822L148.58 236.326L148.04 236.373L148.377 240.223ZM152.309 239.942C153.144 239.869 153.603 239.358 153.692 238.728L153.144 238.776C153.055 239.154 152.772 239.431 152.287 239.474C151.617 239.532 151.182 239.04 151.113 238.257L151.106 238.18L153.68 237.955L153.651 237.616C153.557 236.546 152.921 235.883 151.936 235.97C150.935 236.057 150.44 236.827 150.529 237.845L150.567 238.286C150.663 239.375 151.32 240.029 152.309 239.942ZM151.066 237.713L151.065 237.702C151.006 237.036 151.359 236.491 151.976 236.437C152.587 236.383 153.036 236.855 153.094 237.524L153.095 237.535L151.066 237.713ZM154.49 237.554L154.521 237.907C154.619 239.029 155.276 239.683 156.181 239.603C156.791 239.55 157.168 239.198 157.299 238.868L157.313 238.867L157.48 240.775L158.021 240.728L157.567 235.54L157.052 235.585L157.101 236.147L157.087 236.149C156.831 235.808 156.436 235.576 155.844 235.628C154.94 235.707 154.394 236.462 154.49 237.554ZM155.967 236.102C156.659 236.042 157.122 236.553 157.192 237.351L157.218 237.649C157.289 238.462 156.93 239.06 156.239 239.12C155.577 239.178 155.133 238.676 155.059 237.838L155.033 237.54C154.958 236.683 155.327 236.158 155.967 236.102ZM161.744 235.174L161.2 235.222L161.409 237.608C161.464 238.241 161.098 238.673 160.495 238.726C159.951 238.773 159.505 238.549 159.441 237.821L159.229 235.394L158.688 235.442L158.914 238.023C158.991 238.902 159.601 239.304 160.395 239.235C161.02 239.18 161.363 238.872 161.472 238.548L161.494 238.546L161.54 239.072L162.081 239.024L161.744 235.174ZM164.686 238.859C165.521 238.786 165.98 238.276 166.069 237.645L165.521 237.693C165.432 238.072 165.149 238.348 164.663 238.391C163.994 238.449 163.558 237.958 163.49 237.174L163.483 237.097L166.057 236.872L166.027 236.534C165.934 235.464 165.298 234.801 164.312 234.887C163.312 234.974 162.816 235.744 162.906 236.762L162.944 237.204C163.039 238.292 163.697 238.946 164.686 238.859ZM163.442 236.63L163.441 236.619C163.383 235.954 163.736 235.408 164.353 235.354C164.964 235.3 165.412 235.772 165.471 236.442L165.472 236.453L163.442 236.63ZM166.806 235.821C166.866 236.508 167.469 236.667 168.208 236.762C168.784 236.83 169.211 236.881 169.251 237.337C169.283 237.701 169.006 238.014 168.392 238.068C167.83 238.117 167.497 237.876 167.415 237.528L166.885 237.574C166.943 238.236 167.547 238.609 168.389 238.535C169.264 238.459 169.849 237.989 169.782 237.228C169.716 236.47 169.075 236.345 168.346 236.275C167.871 236.224 167.373 236.16 167.334 235.715C167.298 235.304 167.636 235.063 168.118 235.021C168.758 234.965 168.985 235.319 169.03 235.619L169.541 235.574C169.488 234.971 169.008 234.476 168.1 234.555C167.368 234.619 166.737 235.03 166.806 235.821ZM170.708 234.39L170.183 234.436L170.223 234.896L170.749 234.85L170.953 237.188C171.018 237.931 171.218 238.262 172.096 238.185C172.225 238.174 172.353 238.148 172.407 238.132L172.368 237.687C172.313 237.699 172.258 237.704 172.192 237.71C171.703 237.753 171.538 237.648 171.497 237.174L171.289 234.802L172.076 234.734L172.036 234.274L171.249 234.343L171.164 233.376L170.624 233.423L170.708 234.39ZM174.403 235.156C174.463 235.844 175.066 236.002 175.804 236.097C176.381 236.165 176.808 236.217 176.848 236.673C176.879 237.037 176.603 237.35 175.989 237.404C175.426 237.453 175.094 237.211 175.012 236.863L174.482 236.909C174.54 237.571 175.143 237.944 175.985 237.871C176.86 237.794 177.445 237.324 177.379 236.563C177.313 235.806 176.672 235.68 175.943 235.611C175.468 235.56 174.97 235.496 174.931 235.051C174.895 234.639 175.233 234.398 175.715 234.356C176.355 234.3 176.582 234.654 176.627 234.954L177.138 234.91C177.085 234.306 176.605 233.811 175.696 233.891C174.965 233.955 174.334 234.366 174.403 235.156ZM179.85 237.533C180.685 237.46 181.144 236.949 181.233 236.319L180.685 236.367C180.596 236.745 180.313 237.022 179.827 237.064C179.158 237.123 178.722 236.631 178.654 235.848L178.647 235.77L181.221 235.545L181.191 235.207C181.098 234.137 180.462 233.474 179.476 233.56C178.476 233.648 177.98 234.417 178.069 235.436L178.108 235.877C178.203 236.965 178.861 237.619 179.85 237.533ZM178.606 235.303L178.605 235.292C178.547 234.627 178.899 234.081 179.517 234.027C180.128 233.974 180.576 234.446 180.635 235.115L180.636 235.126L178.606 235.303ZM182.374 237.249L182.915 237.202L182.708 234.845C182.66 234.293 182.917 233.759 183.623 233.697C184.226 233.645 184.644 233.975 184.702 234.633L184.911 237.027L185.452 236.98L185.235 234.505C185.154 233.571 184.517 233.119 183.723 233.188C183.091 233.244 182.759 233.606 182.639 233.876L182.624 233.877L182.578 233.352L182.037 233.399L182.374 237.249ZM186.446 233.013L185.92 233.059L185.96 233.519L186.486 233.473L186.691 235.811C186.756 236.554 186.955 236.885 187.834 236.808C187.963 236.797 188.09 236.771 188.144 236.755L188.105 236.31C188.051 236.322 187.996 236.327 187.93 236.333C187.44 236.376 187.276 236.272 187.234 235.797L187.027 233.426L187.814 233.357L187.773 232.897L186.987 232.966L186.902 231.999L186.361 232.046L186.446 233.013ZM188.631 231.648L189.011 235.182L189.489 235.141L189.245 231.594L188.631 231.648ZM188.965 236.354C188.983 236.563 189.172 236.724 189.381 236.706C189.595 236.687 189.752 236.496 189.734 236.286C189.715 236.073 189.527 235.915 189.314 235.934C189.104 235.952 188.946 236.14 188.965 236.354Z" fill="white"/>
<path d="M102.083 226.318C102.223 227.603 103.244 229.069 105.909 228.836C108.096 228.644 109.498 227.447 109.336 225.593C109.192 223.952 108.033 223.377 106.592 223.175L105.038 222.942C104.155 222.817 103.682 222.433 103.629 221.83C103.556 220.993 104.218 220.433 105.27 220.341C106.461 220.237 107.12 220.835 107.249 221.597L108.841 221.458C108.662 219.723 107.069 218.816 105.166 218.983C103.297 219.146 101.8 220.289 101.959 222.109C102.094 223.659 103.259 224.297 104.53 224.472L106.078 224.706C107.096 224.861 107.612 225.185 107.673 225.884C107.748 226.743 107.105 227.357 105.907 227.462C104.599 227.576 103.848 226.958 103.709 226.175L102.083 226.318ZM114.064 228.059C115.919 227.897 116.786 226.726 116.883 225.525L115.346 225.659C115.228 226.298 114.728 226.725 113.967 226.791C112.963 226.879 112.244 226.154 112.14 224.964L112.124 224.777L116.865 224.362L116.803 223.656C116.621 221.579 115.298 220.321 113.332 220.493C111.408 220.662 110.268 222.066 110.451 224.149L110.514 224.869C110.706 227.063 112.084 228.232 114.064 228.059ZM112.027 223.676L112.026 223.662C111.938 222.659 112.493 221.822 113.448 221.739C114.396 221.656 115.08 222.377 115.169 223.387L115.17 223.401L112.027 223.676ZM118.739 227.525L120.407 227.379L120.033 223.101C119.946 222.112 120.296 221.335 121.515 221.228C121.778 221.205 122.056 221.195 122.198 221.224L122.072 219.791C121.925 219.776 121.75 219.771 121.528 219.79C120.518 219.879 120.026 220.556 119.886 221.029L119.817 221.035L119.732 220.059L118.098 220.202L118.739 227.525ZM126.841 226.941C128.696 226.779 129.563 225.608 129.66 224.407L128.123 224.542C128.005 225.18 127.505 225.607 126.744 225.674C125.74 225.761 125.021 225.036 124.917 223.846L124.901 223.659L129.642 223.244L129.58 222.538C129.398 220.462 128.075 219.204 126.109 219.375C124.185 219.544 123.045 220.948 123.228 223.031L123.291 223.751C123.483 225.945 124.861 227.115 126.841 226.941ZM124.804 222.558L124.803 222.545C124.715 221.541 125.27 220.704 126.225 220.621C127.173 220.538 127.857 221.259 127.945 222.27L127.947 222.283L124.804 222.558ZM131.516 226.407L133.149 226.264L132.769 221.924C132.686 220.976 133.141 220.19 134.172 220.1C135.037 220.024 135.753 220.471 135.854 221.627L136.236 225.994L137.87 225.851L137.458 221.144C137.301 219.352 136.153 218.504 134.658 218.635C133.446 218.741 132.833 219.464 132.634 219.976L132.572 219.982L132.481 218.944L130.875 219.084L131.516 226.407ZM143.647 224.446L143.709 224.44L143.787 225.333L145.338 225.198L144.902 220.221C144.757 218.56 143.448 217.866 141.801 218.01C139.793 218.185 139.07 219.33 139.117 220.574L140.653 220.439C140.647 219.812 141.073 219.343 141.876 219.272C142.707 219.2 143.217 219.608 143.287 220.411L143.346 221.09L141.519 221.249C139.831 221.404 138.997 222.314 139.111 223.622C139.231 224.986 140.288 225.751 141.707 225.627C142.786 225.532 143.384 225.027 143.647 224.446ZM142.112 224.357C141.454 224.415 140.8 224.116 140.736 223.375C140.684 222.787 141.057 222.343 141.915 222.268L143.438 222.135L143.507 222.931C143.575 223.699 142.963 224.283 142.112 224.357ZM156.495 224.221L158.357 224.059L156.498 222.422C156.97 221.599 157.118 220.498 157.01 219.266L156.969 218.796L155.585 218.917L155.62 219.318C155.699 220.225 155.667 220.974 155.434 221.504L153.243 219.498C154.219 218.855 155.08 218.096 154.976 216.906C154.859 215.57 153.612 214.87 152.263 214.988C150.802 215.116 149.796 216.131 149.903 217.357C149.978 218.208 150.56 218.806 151.255 219.414C151.13 219.495 151.004 219.576 150.879 219.656C149.898 220.321 149.216 221.141 149.323 222.359C149.466 224 150.905 224.899 152.788 224.734C153.819 224.644 154.886 224.244 155.64 223.452L156.495 224.221ZM151.849 220.388C151.928 220.332 152.022 220.282 152.114 220.225L154.693 222.594C154.254 223.155 153.478 223.453 152.834 223.51C151.851 223.596 150.926 223.146 150.835 222.108C150.769 221.347 151.204 220.828 151.849 220.388ZM152.391 218.771C151.639 218.146 151.377 217.779 151.337 217.322C151.28 216.671 151.703 216.167 152.368 216.109C153.018 216.052 153.541 216.445 153.6 217.117C153.663 217.844 153.138 218.301 152.391 218.771ZM167.789 221.783L163.678 222.142L162.977 214.134L161.302 214.281L162.129 223.729L167.915 223.222L167.789 221.783ZM169.23 223.107L170.857 222.965L170.216 215.642L168.59 215.784L169.23 223.107ZM168.294 213.997C168.34 214.523 168.802 214.859 169.321 214.814C169.847 214.768 170.243 214.356 170.197 213.83C170.151 213.304 169.689 212.968 169.163 213.014C168.644 213.06 168.248 213.471 168.294 213.997ZM172.892 222.787L174.525 222.644L173.655 212.698L172.022 212.841L172.892 222.787ZM182.045 214.607L180.308 214.759L179.103 220.681L179.048 220.686L176.854 215.061L175.047 215.219L178.273 222.358L178.223 222.662C178.136 223.339 177.844 223.749 176.951 223.827C176.757 223.844 176.486 223.846 176.366 223.836L176.472 225.047C176.662 225.066 177.046 225.074 177.399 225.043C179.164 224.888 179.712 223.815 180.067 222.529L180.21 222.014C180.226 221.957 182.045 214.607 182.045 214.607Z" fill="white"/>
<g filter="url(#filter2_d_1_235)">
<path fill-rule="evenodd" clip-rule="evenodd" d="M110.686 168.031C110.557 166.555 111.172 165.111 112.326 164.181L132.583 147.855C133.989 146.723 135.939 146.552 137.52 147.424L160.304 159.983C161.602 160.699 162.458 162.014 162.588 163.49L164.811 188.908C165.025 191.354 163.216 193.511 160.769 193.725L117.727 197.491C115.281 197.705 113.124 195.895 112.91 193.449L110.686 168.031Z" fill="#EDFBF2"/>
</g>
<path opacity="0.1" fill-rule="evenodd" clip-rule="evenodd" d="M138.918 189.214C147.09 188.499 153.649 187.171 153.568 186.249C153.488 185.326 146.797 185.158 138.626 185.873C130.454 186.588 123.895 187.915 123.975 188.838C124.056 189.76 130.746 189.929 138.918 189.214Z" fill="black"/>
<rect x="132.457" y="137.355" width="2.87476" height="50.7875" transform="rotate(-5 132.457 137.355)" fill="#33D871"/>
<path fill-rule="evenodd" clip-rule="evenodd" d="M147.404 157.195C145.703 155.168 142.023 155.455 139.185 157.836C136.348 160.217 135.426 163.791 137.127 165.818C138.828 167.845 142.507 167.558 145.345 165.177C148.183 162.795 149.105 159.222 147.404 157.195Z" fill="#6CE399"/>
<path fill-rule="evenodd" clip-rule="evenodd" d="M137.059 165.735C137.081 165.763 137.104 165.791 137.127 165.818C138.828 167.845 142.507 167.558 145.345 165.177C148.183 162.795 149.105 159.222 147.404 157.195C147.381 157.167 147.357 157.14 147.334 157.114L137.059 165.735Z" fill="#33D871"/>
<path fill-rule="evenodd" clip-rule="evenodd" d="M139.928 134.494C138.992 133.379 136.919 133.578 135.297 134.939C133.676 136.3 133.12 138.307 134.055 139.422C134.991 140.536 137.064 140.337 138.685 138.976C140.307 137.616 140.863 135.609 139.928 134.494Z" fill="#6CE399"/>
<path fill-rule="evenodd" clip-rule="evenodd" d="M135.274 169.35C136.592 167.779 135.853 164.988 133.623 163.117C131.394 161.246 128.517 161.003 127.199 162.574C125.881 164.145 126.62 166.935 128.85 168.806C131.08 170.677 133.956 170.921 135.274 169.35Z" fill="#6CE399"/>
<path fill-rule="evenodd" clip-rule="evenodd" d="M127.253 162.512C127.235 162.532 127.217 162.553 127.199 162.574C125.881 164.145 126.62 166.935 128.85 168.806C131.08 170.677 133.956 170.921 135.274 169.35C135.292 169.328 135.309 169.307 135.326 169.285L127.253 162.512Z" fill="#33D871"/>
<path fill-rule="evenodd" clip-rule="evenodd" d="M134.146 156.463C135.465 154.892 134.726 152.102 132.496 150.231C130.266 148.36 127.39 148.116 126.072 149.687C124.754 151.258 125.493 154.049 127.722 155.92C129.952 157.791 132.828 158.034 134.146 156.463Z" fill="#6CE399"/>
<path fill-rule="evenodd" clip-rule="evenodd" d="M126.126 149.625C126.108 149.645 126.09 149.666 126.072 149.687C124.754 151.258 125.493 154.049 127.722 155.92C129.952 157.791 132.828 158.034 134.146 156.463C134.164 156.442 134.182 156.42 134.199 156.399L126.126 149.625Z" fill="#33D871"/>
<path fill-rule="evenodd" clip-rule="evenodd" d="M144.561 145.052C143.384 143.372 140.498 143.363 138.114 145.033C135.729 146.702 134.75 149.418 135.926 151.098C137.102 152.777 139.989 152.786 142.373 151.116C144.758 149.447 145.737 146.732 144.561 145.052Z" fill="#6CE399"/>
<path fill-rule="evenodd" clip-rule="evenodd" d="M135.88 151.029C135.895 151.052 135.91 151.075 135.926 151.098C137.102 152.777 139.989 152.786 142.373 151.116C144.758 149.447 145.737 146.732 144.561 145.052C144.545 145.029 144.529 145.007 144.512 144.985L135.88 151.029Z" fill="#33D871"/>
<path fill-rule="evenodd" clip-rule="evenodd" d="M133.204 140.193C134.522 138.622 133.783 135.831 131.554 133.96C129.324 132.089 126.448 131.846 125.129 133.417C123.811 134.988 124.55 137.778 126.78 139.649C129.01 141.52 131.886 141.764 133.204 140.193Z" fill="#6CE399"/>
<path fill-rule="evenodd" clip-rule="evenodd" d="M125.184 133.355C125.165 133.375 125.147 133.396 125.129 133.417C123.811 134.988 124.55 137.778 126.78 139.649C129.01 141.52 131.886 141.764 133.204 140.193C133.222 140.171 133.239 140.15 133.256 140.129L125.184 133.355Z" fill="#33D871"/>
<g filter="url(#filter3_d_1_235)">
<path fill-rule="evenodd" clip-rule="evenodd" d="M110.687 168.035C110.596 166.998 111.675 166.262 112.608 166.724L135.385 178.014C136.877 178.753 138.656 178.598 139.997 177.611L160.468 162.537C161.306 161.919 162.497 162.457 162.588 163.495L164.811 188.908C165.025 191.354 163.216 193.511 160.769 193.725L117.727 197.491C115.281 197.705 113.124 195.895 112.91 193.449L110.687 168.035Z" fill="white"/>
</g>
</g>
<defs>
<filter id="filter0_d_1_235" x="0.813358" y="0.940487" width="278.545" height="454.59" filterUnits="userSpaceOnUse" color-interpolation-filters="sRGB">
<feFlood flood-opacity="0" result="BackgroundImageFix"/>
<feColorMatrix in="SourceAlpha" type="matrix" values="0 0 0 0 0 0 0 0 0 0 0 0 0 0 0 0 0 0 127 0" result="hardAlpha"/>
<feOffset dy="20.0176"/>
<feGaussianBlur stdDeviation="16.6813"/>
<feColorMatrix type="matrix" values="0 0 0 0 0.164706 0 0 0 0 0.423529 0 0 0 0 0.298039 0 0 0 0.25 0"/>
<feBlend mode="normal" in2="BackgroundImageFix" result="effect1_dropShadow_1_235"/>
<feBlend mode="normal" in="SourceGraphic" in2="effect1_dropShadow_1_235" result="shape"/>
</filter>
<filter id="filter1_d_1_235" x="73.8517" y="315.383" width="155.75" height="59.9514" filterUnits="userSpaceOnUse" color-interpolation-filters="sRGB">
<feFlood flood-opacity="0" result="BackgroundImageFix"/>
<feColorMatrix in="SourceAlpha" type="matrix" values="0 0 0 0 0 0 0 0 0 0 0 0 0 0 0 0 0 0 127 0" result="hardAlpha"/>
<feOffset dy="7.1146"/>
<feGaussianBlur stdDeviation="4.44662"/>
<feColorMatrix type="matrix" values="0 0 0 0 0 0 0 0 0 0 0 0 0 0 0 0 0 0 0.2 0"/>
<feBlend mode="normal" in2="BackgroundImageFix" result="effect1_dropShadow_1_235"/>
<feBlend mode="normal" in="SourceGraphic" in2="effect1_dropShadow_1_235" result="shape"/>
</filter>
<filter id="filter2_d_1_235" x="101.776" y="142.424" width="71.9457" height="68.4233" filterUnits="userSpaceOnUse" color-interpolation-filters="sRGB">
<feFlood flood-opacity="0" result="BackgroundImageFix"/>
<feColorMatrix in="SourceAlpha" type="matrix" values="0 0 0 0 0 0 0 0 0 0 0 0 0 0 0 0 0 0 127 0" result="hardAlpha"/>
<feOffset dy="4.44662"/>
<feGaussianBlur stdDeviation="4.44662"/>
<feColorMatrix type="matrix" values="0 0 0 0 0 0 0 0 0 0 0 0 0 0 0 0 0 0 0.2 0"/>
<feBlend mode="normal" in2="BackgroundImageFix" result="effect1_dropShadow_1_235"/>
<feBlend mode="normal" in="SourceGraphic" in2="effect1_dropShadow_1_235" result="shape"/>
</filter>
<filter id="filter3_d_1_235" x="101.788" y="157.828" width="71.9337" height="53.0193" filterUnits="userSpaceOnUse" color-interpolation-filters="sRGB">
<feFlood flood-opacity="0" result="BackgroundImageFix"/>
<feColorMatrix in="SourceAlpha" type="matrix" values="0 0 0 0 0 0 0 0 0 0 0 0 0 0 0 0 0 0 127 0" result="hardAlpha"/>
<feOffset dy="4.44662"/>
<feGaussianBlur stdDeviation="4.44662"/>
<feColorMatrix type="matrix" values="0 0 0 0 0 0 0 0 0 0 0 0 0 0 0 0 0 0 0.2 0"/>
<feBlend mode="normal" in2="BackgroundImageFix" result="effect1_dropShadow_1_235"/>
<feBlend mode="normal" in="SourceGraphic" in2="effect1_dropShadow_1_235" result="shape"/>
</filter>
<linearGradient id="paint0_linear_1_235" x1="31.8906" y1="28.0509" x2="31.8906" y2="405.873" gradientUnits="userSpaceOnUse">
<stop stop-color="#FDFDFD"/>
<stop offset="1" stop-color="white"/>
</linearGradient>
<linearGradient id="paint1_linear_1_235" x1="35.4632" y1="28.0509" x2="35.4632" y2="391.214" gradientUnits="userSpaceOnUse">
<stop stop-color="white"/>
<stop offset="0.965362" stop-color="#F9FAFA" stop-opacity="0.7"/>
</linearGradient>
<clipPath id="clip0_1_235">
<rect width="166.748" height="361.066" fill="white" transform="translate(41.4253 34.103) rotate(-5)"/>
</clipPath>
</defs>
</svg>
