<svg width="279" height="456" viewBox="0 0 279 456" fill="none" xmlns="http://www.w3.org/2000/svg">
<g filter="url(#filter0_d_1_163)">
<rect x="31.5168" y="27.6207" width="183.577" height="377.873" rx="25.4596" transform="rotate(-5 31.5168 27.6207)" fill="url(#paint0_linear_1_163)"/>
<rect x="31.5168" y="27.6207" width="183.577" height="377.873" rx="25.4596" transform="rotate(-5 31.5168 27.6207)" fill="url(#paint1_linear_1_163)" fill-opacity="0.5"/>
</g>
<g clip-path="url(#clip0_1_163)">
<path fill-rule="evenodd" clip-rule="evenodd" d="M41.7449 52.2825C40.9064 42.6985 47.9961 34.2494 57.5801 33.4109L189.733 21.849C199.317 21.0105 207.766 28.1002 208.605 37.6842L237.101 363.394C237.939 372.978 230.849 381.427 221.265 382.266L89.1125 393.828C79.5285 394.666 71.0793 387.577 70.2409 377.993L41.7449 52.2825Z" fill="black"/>
<ellipse opacity="0.5" cx="150.864" cy="338.614" rx="17.4197" ry="17.3768" transform="rotate(-5 150.864 338.614)" fill="#33D871"/>
<ellipse cx="151.107" cy="338.824" rx="14.2931" ry="14.2579" transform="rotate(-5 151.107 338.824)" fill="#33D871"/>
<path d="M93.7785 345.152C93.7608 345.761 93.5785 346.246 93.2316 346.608C92.887 346.967 92.4044 347.173 91.7835 347.227C91.1104 347.286 90.5493 347.092 90.1001 346.645C89.6536 346.198 89.3949 345.57 89.3242 344.761L89.2762 344.213C89.2299 343.684 89.2831 343.21 89.4358 342.792C89.591 342.373 89.8328 342.042 90.161 341.798C90.4891 341.551 90.8813 341.408 91.3379 341.368C91.9431 341.315 92.4431 341.442 92.838 341.749C93.2327 342.054 93.4861 342.502 93.5984 343.094L92.8432 343.16C92.7383 342.712 92.5673 342.396 92.3304 342.211C92.0961 342.027 91.7832 341.952 91.3919 341.986C90.9119 342.028 90.5505 342.238 90.3076 342.617C90.0674 342.996 89.9759 343.512 90.0332 344.167L90.0814 344.719C90.1355 345.337 90.3077 345.817 90.5979 346.16C90.8881 346.503 91.2654 346.654 91.7297 346.613C92.1471 346.577 92.4585 346.455 92.6638 346.247C92.8715 346.037 92.9913 345.694 93.0233 345.218L93.7785 345.152ZM97.4662 346.651C97.4172 346.572 97.3703 346.426 97.3255 346.214C97.0195 346.593 96.6331 346.803 96.1661 346.844C95.7487 346.88 95.3954 346.793 95.1062 346.582C94.8193 346.368 94.66 346.079 94.6283 345.717C94.5897 345.276 94.7268 344.92 95.0395 344.648C95.3545 344.373 95.816 344.209 96.4238 344.156L97.1282 344.094L97.0991 343.762C97.0769 343.509 96.9837 343.314 96.8194 343.179C96.6548 343.041 96.4252 342.985 96.1304 343.011C95.8721 343.033 95.6613 343.117 95.4979 343.263C95.3346 343.409 95.261 343.574 95.2772 343.759L94.5494 343.823C94.5309 343.612 94.5874 343.402 94.719 343.193C94.853 342.982 95.0427 342.807 95.2884 342.67C95.5366 342.533 95.8146 342.451 96.1224 342.424C96.6103 342.381 97.0032 342.47 97.3011 342.691C97.5989 342.91 97.7717 343.232 97.8196 343.659L97.99 345.608C98.0241 345.997 98.1007 346.301 98.2199 346.522L98.2254 346.585L97.4662 346.651ZM96.2166 346.205C96.4436 346.185 96.6537 346.107 96.8469 345.972C97.0401 345.837 97.1741 345.671 97.249 345.476L97.173 344.607L96.6056 344.657C95.7187 344.734 95.2979 345.033 95.3433 345.552C95.3632 345.779 95.4543 345.949 95.6168 346.064C95.7793 346.179 95.9793 346.225 96.2166 346.205ZM99.5258 342.205L99.5958 342.735C99.8837 342.3 100.289 342.059 100.81 342.014C101.705 341.935 102.201 342.401 102.297 343.409L102.541 346.207L101.818 346.271L101.572 343.469C101.543 343.164 101.453 342.944 101.302 342.81C101.153 342.676 100.934 342.622 100.645 342.647C100.41 342.668 100.209 342.748 100.043 342.889C99.8766 343.03 99.7527 343.206 99.6714 343.418L99.9354 346.435L99.2114 346.499L98.841 342.265L99.5258 342.205ZM105.287 345.451C105.545 345.428 105.764 345.33 105.943 345.157C106.122 344.983 106.212 344.778 106.213 344.542L106.897 344.482C106.906 344.725 106.842 344.964 106.708 345.196C106.573 345.429 106.382 345.622 106.135 345.775C105.891 345.927 105.625 346.016 105.338 346.041C104.762 346.092 104.286 345.94 103.911 345.587C103.538 345.23 103.322 344.718 103.264 344.05L103.253 343.929C103.217 343.517 103.261 343.144 103.384 342.81C103.507 342.476 103.702 342.207 103.968 342.005C104.237 341.803 104.564 341.685 104.95 341.651C105.425 341.61 105.831 341.718 106.169 341.975C106.51 342.231 106.71 342.586 106.771 343.038L106.086 343.098C106.041 342.826 105.917 342.61 105.714 342.452C105.514 342.291 105.276 342.222 105.002 342.246C104.634 342.278 104.36 342.436 104.18 342.72C104.002 343.001 103.935 343.392 103.979 343.893L103.991 344.03C104.034 344.518 104.167 344.885 104.391 345.131C104.615 345.377 104.914 345.483 105.287 345.451ZM109.592 345.669C109.018 345.72 108.535 345.573 108.142 345.228C107.749 344.882 107.524 344.393 107.469 343.761L107.458 343.628C107.421 343.208 107.468 342.827 107.598 342.484C107.731 342.139 107.932 341.861 108.203 341.651C108.476 341.438 108.781 341.316 109.118 341.287C109.668 341.239 110.112 341.382 110.449 341.718C110.786 342.054 110.984 342.56 111.043 343.236L111.069 343.537L108.201 343.788C108.248 344.204 108.399 344.532 108.654 344.77C108.911 345.005 109.219 345.107 109.579 345.075C109.835 345.053 110.047 344.982 110.215 344.862C110.383 344.742 110.527 344.59 110.644 344.406L111.117 344.712C110.81 345.288 110.301 345.607 109.592 345.669ZM109.17 341.882C108.878 341.907 108.642 342.036 108.462 342.267C108.282 342.495 108.186 342.804 108.172 343.191L110.293 343.006L110.288 342.951C110.235 342.585 110.111 342.309 109.916 342.124C109.721 341.936 109.472 341.855 109.17 341.882ZM112.864 345.304L112.14 345.368L111.614 339.357L112.338 339.294L112.864 345.304Z" fill="white"/>
<path d="M193.894 336.393C193.876 337.002 193.694 337.487 193.347 337.849C193.003 338.207 192.52 338.414 191.899 338.468C191.226 338.527 190.665 338.333 190.216 337.886C189.769 337.439 189.511 336.811 189.44 336.002L189.392 335.454C189.346 334.925 189.399 334.451 189.551 334.033C189.707 333.614 189.949 333.283 190.277 333.039C190.605 332.792 190.997 332.648 191.454 332.608C192.059 332.556 192.559 332.683 192.954 332.99C193.348 333.294 193.602 333.743 193.714 334.335L192.959 334.401C192.854 333.953 192.683 333.637 192.446 333.452C192.212 333.268 191.899 333.193 191.508 333.227C191.028 333.269 190.666 333.479 190.423 333.858C190.183 334.236 190.092 334.753 190.149 335.408L190.197 335.96C190.251 336.578 190.423 337.058 190.714 337.401C191.004 337.744 191.381 337.895 191.845 337.854C192.263 337.817 192.574 337.696 192.78 337.488C192.987 337.278 193.107 336.935 193.139 336.459L193.894 336.393ZM195.366 334.336C195.653 333.914 196.053 333.681 196.567 333.636C197.462 333.558 197.957 334.023 198.053 335.032L198.298 337.83L197.574 337.893L197.329 335.091C197.3 334.786 197.21 334.567 197.058 334.433C196.91 334.298 196.691 334.244 196.401 334.269C196.167 334.29 195.966 334.371 195.8 334.511C195.633 334.652 195.509 334.828 195.428 335.041L195.692 338.058L194.968 338.121L194.442 332.11L195.166 332.047L195.366 334.336ZM199.002 335.595C198.965 335.181 199.014 334.8 199.146 334.455C199.282 334.109 199.486 333.834 199.76 333.629C200.036 333.423 200.361 333.304 200.734 333.271C201.311 333.221 201.794 333.38 202.184 333.748C202.576 334.116 202.801 334.631 202.859 335.293L202.863 335.344C202.9 335.756 202.852 336.134 202.722 336.476C202.594 336.816 202.391 337.09 202.112 337.299C201.836 337.507 201.507 337.628 201.126 337.661C200.552 337.711 200.069 337.552 199.677 337.185C199.287 336.816 199.064 336.304 199.006 335.646L199.002 335.595ZM199.737 335.618C199.778 336.087 199.919 336.455 200.161 336.72C200.405 336.985 200.709 337.102 201.075 337.07C201.442 337.038 201.722 336.869 201.913 336.563C202.105 336.254 202.177 335.841 202.132 335.322C202.091 334.857 201.948 334.491 201.701 334.224C201.456 333.953 201.152 333.834 200.786 333.866C200.429 333.897 200.153 334.065 199.959 334.368C199.765 334.672 199.691 335.088 199.737 335.618ZM203.572 335.196C203.536 334.781 203.584 334.401 203.717 334.055C203.852 333.709 204.057 333.434 204.331 333.229C204.607 333.023 204.932 332.904 205.305 332.871C205.881 332.821 206.364 332.98 206.754 333.348C207.146 333.716 207.372 334.231 207.429 334.894L207.434 334.944C207.47 335.357 207.423 335.734 207.292 336.077C207.164 336.416 206.961 336.69 206.682 336.899C206.406 337.107 206.078 337.228 205.697 337.261C205.123 337.311 204.64 337.153 204.247 336.785C203.858 336.417 203.634 335.904 203.576 335.246L203.572 335.196ZM204.307 335.218C204.348 335.688 204.49 336.055 204.731 336.32C204.975 336.586 205.28 336.702 205.645 336.67C206.013 336.638 206.292 336.469 206.484 336.163C206.675 335.855 206.748 335.441 206.702 334.922C206.662 334.457 206.518 334.091 206.271 333.824C206.027 333.553 205.722 333.434 205.357 333.466C204.999 333.497 204.724 333.665 204.529 333.968C204.335 334.272 204.261 334.688 204.307 335.218ZM210.89 335.596C210.873 335.401 210.785 335.256 210.627 335.162C210.471 335.065 210.206 334.994 209.832 334.948C209.459 334.901 209.16 334.833 208.934 334.742C208.711 334.651 208.54 334.535 208.423 334.393C208.308 334.25 208.241 334.075 208.223 333.866C208.192 333.519 208.313 333.213 208.584 332.947C208.858 332.681 209.223 332.529 209.68 332.489C210.16 332.447 210.559 332.537 210.878 332.758C211.2 332.98 211.378 333.284 211.411 333.67L210.683 333.734C210.666 333.535 210.566 333.372 210.384 333.243C210.205 333.114 209.987 333.061 209.732 333.083C209.468 333.106 209.267 333.182 209.128 333.31C208.99 333.437 208.928 333.594 208.945 333.779C208.96 333.954 209.041 334.08 209.187 334.156C209.333 334.233 209.589 334.296 209.956 334.345C210.326 334.394 210.628 334.465 210.862 334.558C211.096 334.65 211.274 334.771 211.395 334.921C211.518 335.068 211.589 335.255 211.609 335.482C211.642 335.86 211.518 336.177 211.235 336.434C210.952 336.687 210.57 336.835 210.087 336.877C209.748 336.907 209.443 336.873 209.171 336.776C208.9 336.679 208.681 336.53 208.513 336.329C208.348 336.125 208.255 335.898 208.233 335.647L208.957 335.584C208.991 335.825 209.104 336.01 209.297 336.138C209.492 336.263 209.738 336.312 210.035 336.286C210.309 336.262 210.524 336.188 210.678 336.064C210.836 335.937 210.906 335.781 210.89 335.596ZM214.419 336.498C213.845 336.548 213.362 336.401 212.969 336.057C212.576 335.71 212.351 335.221 212.296 334.59L212.285 334.457C212.248 334.037 212.295 333.656 212.425 333.313C212.558 332.968 212.76 332.69 213.03 332.479C213.303 332.266 213.608 332.145 213.945 332.115C214.495 332.067 214.939 332.211 215.276 332.547C215.613 332.883 215.811 333.389 215.87 334.064L215.896 334.366L213.028 334.617C213.075 335.033 213.226 335.36 213.481 335.598C213.738 335.833 214.046 335.935 214.406 335.904C214.662 335.881 214.874 335.81 215.042 335.69C215.21 335.571 215.354 335.419 215.472 335.235L215.944 335.541C215.637 336.117 215.128 336.436 214.419 336.498ZM213.997 332.71C213.705 332.736 213.469 332.864 213.289 333.095C213.109 333.324 213.013 333.632 212.999 334.02L215.12 333.834L215.116 333.779C215.062 333.413 214.938 333.138 214.743 332.952C214.548 332.764 214.299 332.684 213.997 332.71Z" fill="white"/>
</g>
<defs>
<filter id="filter0_d_1_163" x="0.137913" y="0.34169" width="278.57" height="455.193" filterUnits="userSpaceOnUse" color-interpolation-filters="sRGB">
<feFlood flood-opacity="0" result="BackgroundImageFix"/>
<feColorMatrix in="SourceAlpha" type="matrix" values="0 0 0 0 0 0 0 0 0 0 0 0 0 0 0 0 0 0 127 0" result="hardAlpha"/>
<feOffset dy="20.0997"/>
<feGaussianBlur stdDeviation="16.7497"/>
<feColorMatrix type="matrix" values="0 0 0 0 0.164706 0 0 0 0 0.423529 0 0 0 0 0.298039 0 0 0 0.25 0"/>
<feBlend mode="normal" in2="BackgroundImageFix" result="effect1_dropShadow_1_163"/>
<feBlend mode="normal" in="SourceGraphic" in2="effect1_dropShadow_1_163" result="shape"/>
</filter>
<linearGradient id="paint0_linear_1_163" x1="31.5168" y1="27.6207" x2="31.5168" y2="405.494" gradientUnits="userSpaceOnUse">
<stop stop-color="#FDFDFD"/>
<stop offset="1" stop-color="white"/>
</linearGradient>
<linearGradient id="paint1_linear_1_163" x1="35.078" y1="27.6207" x2="35.078" y2="390.833" gradientUnits="userSpaceOnUse">
<stop stop-color="white"/>
<stop offset="0.965362" stop-color="#F9FAFA" stop-opacity="0.7"/>
</linearGradient>
<clipPath id="clip0_1_163">
<rect width="167.497" height="361.794" fill="white" transform="translate(40.2267 34.9291) rotate(-5)"/>
</clipPath>
</defs>
</svg>
