<svg width="346" height="448" viewBox="0 0 346 448" fill="none" xmlns="http://www.w3.org/2000/svg">
<path fill-rule="evenodd" clip-rule="evenodd" d="M0.921387 120.887L174 102.486L195.231 302.192L22.1526 320.593L0.921387 120.887Z" fill="#D83351"/>
<rect x="27.2353" y="143.661" width="21.1015" height="21.1015" transform="rotate(-6.06845 27.2353 143.661)" stroke="white" stroke-width="0.655207"/>
<rect x="32.609" y="181.471" width="125.52" height="113.805" transform="rotate(-6.06845 32.609 181.471)" fill="#821F31"/>
<rect x="106.188" y="177.014" width="48.5343" height="43.5135" transform="rotate(-6.06845 106.188 177.014)" fill="#D83351"/>
<path fill-rule="evenodd" clip-rule="evenodd" d="M40.8917 227.716L109.125 220.462L115.671 282.038L47.438 289.292L40.8917 227.716Z" fill="#D83351"/>
<rect opacity="0.4" x="65.1516" y="139.305" width="55.2287" height="3.34719" transform="rotate(-6.06845 65.1516 139.305)" fill="black"/>
<rect opacity="0.4" x="66.0371" y="147.625" width="45.1871" height="3.34719" transform="rotate(-6.06845 66.0371 147.625)" fill="black"/>
<rect opacity="0.4" x="66.5681" y="152.614" width="23.4303" height="3.34719" transform="rotate(-6.06845 66.5681 152.614)" fill="black"/>
<path fill-rule="evenodd" clip-rule="evenodd" d="M111.515 47.5821C110.071 31.0766 122.28 16.5257 138.786 15.0816L278.1 2.89322C294.605 1.44917 309.156 13.6589 310.6 30.1644L342.993 400.418C344.437 416.923 332.228 431.474 315.722 432.918L176.408 445.107C159.903 446.551 145.352 434.341 143.908 417.836L111.515 47.5821Z" fill="black"/>
<ellipse opacity="0.5" cx="240.905" cy="380.032" rx="25.5149" ry="25.452" transform="rotate(-5 240.905 380.032)" fill="#33D871"/>
<ellipse cx="241.26" cy="380.341" rx="20.9353" ry="20.8837" transform="rotate(-5 241.26 380.341)" fill="#33D871"/>
<path fill-rule="evenodd" clip-rule="evenodd" d="M126.292 44.6248C125.579 36.4678 131.613 29.2767 139.77 28.5631L281.372 16.1744C289.529 15.4608 296.721 21.4948 297.434 29.6518L322.381 314.79C323.094 322.947 317.06 330.138 308.903 330.852L167.3 343.24C159.143 343.954 151.952 337.92 151.239 329.763L126.292 44.6248Z" fill="#EBFBF1"/>
<path fill-rule="evenodd" clip-rule="evenodd" d="M166.208 134.789L271.454 123.832L284.096 245.27L178.85 256.226L166.208 134.789Z" fill="#D83351"/>
<rect x="182.176" y="148.669" width="12.8285" height="12.8285" transform="rotate(-5.94325 182.176 148.669)" stroke="white" stroke-width="0.398328"/>
<rect x="185.392" y="171.662" width="76.3086" height="69.1865" transform="rotate(-5.94325 185.392 171.662)" fill="#821F31"/>
<rect x="230.13" y="169.05" width="29.506" height="26.4537" transform="rotate(-5.94325 230.13 169.05)" fill="#D83351"/>
<path fill-rule="evenodd" clip-rule="evenodd" d="M190.366 199.787L231.857 195.468L235.755 232.911L194.264 237.23L190.366 199.787Z" fill="#D83351"/>
<rect opacity="0.4" x="205.232" y="146.071" width="33.5758" height="2.0349" transform="rotate(-5.94325 205.232 146.071)" fill="black"/>
<rect opacity="0.4" x="205.76" y="151.13" width="27.4711" height="2.0349" transform="rotate(-5.94325 205.76 151.13)" fill="black"/>
<rect opacity="0.4" x="206.076" y="154.164" width="14.2443" height="2.0349" transform="rotate(-5.94325 206.076 154.164)" fill="black"/>
<g opacity="0.5">
<rect x="150.965" y="107.421" width="4" height="20" transform="rotate(-5.43248 150.965 107.421)" fill="black"/>
<rect x="150.965" y="107.421" width="20" height="4" transform="rotate(-5.43248 150.965 107.421)" fill="black"/>
<rect width="4" height="20" transform="matrix(-0.995508 0.0946727 0.0946727 0.995508 282.173 94.6262)" fill="black"/>
<rect width="20" height="4" transform="matrix(-0.995508 0.0946727 0.0946727 0.995508 282.173 94.6262)" fill="black"/>
</g>
<g opacity="0.5">
<rect width="4" height="20" transform="matrix(0.995508 -0.0946727 -0.0946727 -0.995508 166.099 282.14)" fill="black"/>
<rect width="20" height="4" transform="matrix(0.995508 -0.0946727 -0.0946727 -0.995508 166.099 282.14)" fill="black"/>
<rect x="302.382" y="268.476" width="4" height="20" transform="rotate(174.568 302.382 268.476)" fill="black"/>
<rect x="302.382" y="268.476" width="20" height="4" transform="rotate(174.568 302.382 268.476)" fill="black"/>
</g>
</svg>
