<svg width="125" height="23" viewBox="0 0 125 23" fill="none" xmlns="http://www.w3.org/2000/svg">
<path d="M7.16797 11.918H2.82031V9.17578H7.16797C7.83984 9.17578 8.38672 9.06641 8.80859 8.84766C9.23047 8.62109 9.53906 8.30859 9.73438 7.91016C9.92969 7.51172 10.0273 7.0625 10.0273 6.5625C10.0273 6.05469 9.92969 5.58203 9.73438 5.14453C9.53906 4.70703 9.23047 4.35547 8.80859 4.08984C8.38672 3.82422 7.83984 3.69141 7.16797 3.69141H4.03906V18H0.523438V0.9375H7.16797C8.50391 0.9375 9.64844 1.17969 10.6016 1.66406C11.5625 2.14063 12.2969 2.80078 12.8047 3.64453C13.3125 4.48828 13.5664 5.45312 13.5664 6.53906C13.5664 7.64062 13.3125 8.59375 12.8047 9.39844C12.2969 10.2031 11.5625 10.8242 10.6016 11.2617C9.64844 11.6992 8.50391 11.918 7.16797 11.918ZM21.7644 15.1406V9.49219C21.7644 9.08594 21.698 8.73828 21.5652 8.44922C21.4323 8.15234 21.2253 7.92188 20.9441 7.75781C20.6706 7.59375 20.3152 7.51172 19.8777 7.51172C19.5027 7.51172 19.1784 7.57812 18.905 7.71094C18.6316 7.83594 18.4206 8.01953 18.2722 8.26172C18.1237 8.49609 18.0495 8.77344 18.0495 9.09375H14.6745C14.6745 8.55469 14.7995 8.04297 15.0495 7.55859C15.2995 7.07422 15.6628 6.64844 16.1394 6.28125C16.6159 5.90625 17.1823 5.61328 17.8386 5.40234C18.5027 5.19141 19.2448 5.08594 20.0652 5.08594C21.0495 5.08594 21.9245 5.25 22.6902 5.57812C23.4558 5.90625 24.0573 6.39844 24.4948 7.05469C24.9402 7.71094 25.1628 8.53125 25.1628 9.51562V14.9414C25.1628 15.6367 25.2058 16.207 25.2917 16.6523C25.3777 17.0898 25.5027 17.4727 25.6667 17.8008V18H22.2566C22.0925 17.6562 21.9675 17.2266 21.8816 16.7109C21.8034 16.1875 21.7644 15.6641 21.7644 15.1406ZM22.2097 10.2773L22.2331 12.1875H20.3464C19.9011 12.1875 19.5144 12.2383 19.1862 12.3398C18.8581 12.4414 18.5886 12.5859 18.3777 12.7734C18.1667 12.9531 18.0105 13.1641 17.9089 13.4062C17.8152 13.6484 17.7683 13.9141 17.7683 14.2031C17.7683 14.4922 17.8347 14.7539 17.9675 14.9883C18.1003 15.2148 18.2917 15.3945 18.5417 15.5273C18.7917 15.6523 19.0847 15.7148 19.4206 15.7148C19.9284 15.7148 20.3698 15.6133 20.7448 15.4102C21.1198 15.207 21.4089 14.957 21.612 14.6602C21.823 14.3633 21.9323 14.082 21.9402 13.8164L22.8308 15.2461C22.7058 15.5664 22.5339 15.8984 22.3152 16.2422C22.1042 16.5859 21.8347 16.9102 21.5066 17.2148C21.1784 17.5117 20.7839 17.7578 20.323 17.9531C19.862 18.1406 19.3152 18.2344 18.6823 18.2344C17.8777 18.2344 17.1472 18.0742 16.4909 17.7539C15.8425 17.4258 15.3269 16.9766 14.9441 16.4062C14.5691 15.8281 14.3816 15.1719 14.3816 14.4375C14.3816 13.7734 14.5066 13.1836 14.7566 12.668C15.0066 12.1523 15.3737 11.7188 15.8581 11.3672C16.3503 11.0078 16.9636 10.7383 17.698 10.5586C18.4323 10.3711 19.2839 10.2773 20.2527 10.2773H22.2097ZM30.4194 7.75781V22.875H27.0444V5.32031H30.1733L30.4194 7.75781ZM38.4467 11.5195V11.7656C38.4467 12.6875 38.3373 13.543 38.1186 14.332C37.9077 15.1211 37.5952 15.8086 37.1811 16.3945C36.767 16.9727 36.2514 17.4258 35.6342 17.7539C35.0248 18.0742 34.3217 18.2344 33.5248 18.2344C32.7514 18.2344 32.0795 18.0781 31.5092 17.7656C30.9389 17.4531 30.4584 17.0156 30.0678 16.4531C29.685 15.8828 29.3764 15.2227 29.142 14.4727C28.9077 13.7227 28.728 12.918 28.603 12.0586V11.4141C28.728 10.4922 28.9077 9.64844 29.142 8.88281C29.3764 8.10938 29.685 7.44141 30.0678 6.87891C30.4584 6.30859 30.935 5.86719 31.4975 5.55469C32.0678 5.24219 32.7358 5.08594 33.5014 5.08594C34.3061 5.08594 35.0131 5.23828 35.6225 5.54297C36.2397 5.84766 36.7553 6.28516 37.1694 6.85547C37.5912 7.42578 37.9077 8.10547 38.1186 8.89453C38.3373 9.68359 38.4467 10.5586 38.4467 11.5195ZM35.06 11.7656V11.5195C35.06 10.9805 35.0131 10.4844 34.9194 10.0312C34.8334 9.57031 34.6928 9.16797 34.4975 8.82422C34.31 8.48047 34.06 8.21484 33.7475 8.02734C33.4428 7.83203 33.0717 7.73438 32.6342 7.73438C32.1733 7.73438 31.7787 7.80859 31.4506 7.95703C31.1303 8.10547 30.8686 8.32031 30.6655 8.60156C30.4623 8.88281 30.31 9.21875 30.2084 9.60938C30.1069 10 30.0444 10.4414 30.0209 10.9336V12.5625C30.06 13.1406 30.1694 13.6602 30.3491 14.1211C30.5287 14.5742 30.8061 14.9336 31.1811 15.1992C31.5561 15.4648 32.0483 15.5977 32.6577 15.5977C33.103 15.5977 33.478 15.5 33.7827 15.3047C34.0873 15.1016 34.3334 14.8242 34.5209 14.4727C34.7162 14.1211 34.853 13.7148 34.9311 13.2539C35.017 12.793 35.06 12.2969 35.06 11.7656ZM45.6603 18.2344C44.6759 18.2344 43.7931 18.0781 43.0119 17.7656C42.2306 17.4453 41.5666 17.0039 41.0197 16.4414C40.4806 15.8789 40.0666 15.2266 39.7775 14.4844C39.4884 13.7344 39.3439 12.9375 39.3439 12.0938V11.625C39.3439 10.6641 39.4806 9.78516 39.7541 8.98828C40.0275 8.19141 40.4181 7.5 40.9259 6.91406C41.4416 6.32812 42.0666 5.87891 42.8009 5.56641C43.5353 5.24609 44.3634 5.08594 45.2853 5.08594C46.1838 5.08594 46.9806 5.23438 47.6759 5.53125C48.3713 5.82812 48.9533 6.25 49.422 6.79688C49.8986 7.34375 50.258 8 50.5002 8.76562C50.7423 9.52344 50.8634 10.3672 50.8634 11.2969V12.7031H40.7853V10.4531H47.547V10.1953C47.547 9.72656 47.4611 9.30859 47.2892 8.94141C47.1252 8.56641 46.8752 8.26953 46.5392 8.05078C46.2033 7.83203 45.7736 7.72266 45.2502 7.72266C44.8048 7.72266 44.422 7.82031 44.1017 8.01562C43.7814 8.21094 43.5197 8.48438 43.3166 8.83594C43.1213 9.1875 42.9728 9.60156 42.8713 10.0781C42.7775 10.5469 42.7306 11.0625 42.7306 11.625V12.0938C42.7306 12.6016 42.8009 13.0703 42.9416 13.5C43.09 13.9297 43.297 14.3008 43.5627 14.6133C43.8361 14.9258 44.1642 15.168 44.547 15.3398C44.9377 15.5117 45.3791 15.5977 45.8713 15.5977C46.4806 15.5977 47.047 15.4805 47.5705 15.2461C48.1017 15.0039 48.5588 14.6406 48.9416 14.1562L50.5822 15.9375C50.3166 16.3203 49.9533 16.6875 49.4923 17.0391C49.0392 17.3906 48.4923 17.6797 47.8517 17.9062C47.2111 18.125 46.4806 18.2344 45.6603 18.2344ZM55.4403 8.08594V18H52.0653V5.32031H55.2411L55.4403 8.08594ZM59.2606 5.23828L59.202 8.36719C59.038 8.34375 58.8387 8.32422 58.6044 8.30859C58.3778 8.28516 58.1708 8.27344 57.9833 8.27344C57.5067 8.27344 57.0927 8.33594 56.7411 8.46094C56.3973 8.57812 56.1083 8.75391 55.8739 8.98828C55.6473 9.22266 55.4755 9.50781 55.3583 9.84375C55.2489 10.1797 55.1864 10.5625 55.1708 10.9922L54.4911 10.7812C54.4911 9.96094 54.5731 9.20703 54.7372 8.51953C54.9012 7.82422 55.1395 7.21875 55.452 6.70312C55.7723 6.1875 56.163 5.78906 56.6239 5.50781C57.0848 5.22656 57.6122 5.08594 58.2059 5.08594C58.3934 5.08594 58.5848 5.10156 58.7802 5.13281C58.9755 5.15625 59.1356 5.19141 59.2606 5.23828ZM63.0641 0.9375V18H60.8023V0.9375H63.0641ZM73.3648 0.9375L66.275 8.89453L62.2906 13.0312L61.9156 10.6172L64.9156 7.3125L70.6461 0.9375H73.3648ZM71.1852 18L64.8688 9.67969L66.2164 7.88672L73.8805 18H71.1852ZM82.3011 15.832V9.30469C82.3011 8.80469 82.1995 8.37109 81.9964 8.00391C81.8011 7.62891 81.5042 7.33984 81.1058 7.13672C80.7073 6.93359 80.2152 6.83203 79.6292 6.83203C79.0823 6.83203 78.6019 6.92578 78.1878 7.11328C77.7816 7.30078 77.4613 7.54688 77.2269 7.85156C77.0003 8.15625 76.887 8.48438 76.887 8.83594H74.7191C74.7191 8.38281 74.8363 7.93359 75.0706 7.48828C75.305 7.04297 75.6409 6.64062 76.0784 6.28125C76.5238 5.91406 77.055 5.625 77.6722 5.41406C78.2972 5.19531 78.9925 5.08594 79.7581 5.08594C80.68 5.08594 81.4925 5.24219 82.1956 5.55469C82.9066 5.86719 83.4613 6.33984 83.8597 6.97266C84.2659 7.59766 84.4691 8.38281 84.4691 9.32812V15.2344C84.4691 15.6562 84.5042 16.1055 84.5745 16.582C84.6527 17.0586 84.7659 17.4688 84.9144 17.8125V18H82.6527C82.5433 17.75 82.4573 17.418 82.3948 17.0039C82.3323 16.582 82.3011 16.1914 82.3011 15.832ZM82.6761 10.3125L82.6995 11.8359H80.5081C79.8909 11.8359 79.3402 11.8867 78.8558 11.9883C78.3714 12.082 77.9652 12.2266 77.637 12.4219C77.3089 12.6172 77.0589 12.8633 76.887 13.1602C76.7152 13.4492 76.6292 13.7891 76.6292 14.1797C76.6292 14.5781 76.7191 14.9414 76.8988 15.2695C77.0784 15.5977 77.348 15.8594 77.7073 16.0547C78.0745 16.2422 78.5238 16.3359 79.055 16.3359C79.7191 16.3359 80.305 16.1953 80.8128 15.9141C81.3206 15.6328 81.723 15.2891 82.0198 14.8828C82.3245 14.4766 82.4886 14.082 82.512 13.6992L83.4378 14.7422C83.3831 15.0703 83.2347 15.4336 82.9925 15.832C82.7503 16.2305 82.4261 16.6133 82.0198 16.9805C81.6214 17.3398 81.1448 17.6406 80.5902 17.8828C80.0433 18.1172 79.4261 18.2344 78.7386 18.2344C77.8792 18.2344 77.1253 18.0664 76.4769 17.7305C75.8363 17.3945 75.3363 16.9453 74.9769 16.3828C74.6253 15.8125 74.4495 15.1758 74.4495 14.4727C74.4495 13.793 74.5823 13.1953 74.848 12.6797C75.1136 12.1562 75.4964 11.7227 75.9964 11.3789C76.4964 11.0273 77.098 10.7617 77.8011 10.582C78.5042 10.4023 79.2894 10.3125 80.1566 10.3125H82.6761ZM89.3272 7.3125V18H87.1592V5.32031H89.2686L89.3272 7.3125ZM93.2881 5.25L93.2764 7.26562C93.0967 7.22656 92.9248 7.20312 92.7608 7.19531C92.6045 7.17969 92.4248 7.17188 92.2217 7.17188C91.7217 7.17188 91.2803 7.25 90.8975 7.40625C90.5147 7.5625 90.1905 7.78125 89.9248 8.0625C89.6592 8.34375 89.4483 8.67969 89.292 9.07031C89.1436 9.45312 89.0459 9.875 88.9991 10.3359L88.3897 10.6875C88.3897 9.92188 88.4639 9.20312 88.6123 8.53125C88.7686 7.85938 89.0069 7.26562 89.3272 6.75C89.6475 6.22656 90.0537 5.82031 90.5459 5.53125C91.0459 5.23438 91.6397 5.08594 92.3272 5.08594C92.4834 5.08594 92.6631 5.10547 92.8662 5.14453C93.0694 5.17578 93.21 5.21094 93.2881 5.25ZM96.7283 7.83984V18H94.5486V5.32031H96.6111L96.7283 7.83984ZM96.283 11.1797L95.2752 11.1445C95.283 10.2773 95.3962 9.47656 95.615 8.74219C95.8337 8 96.158 7.35547 96.5877 6.80859C97.0173 6.26172 97.5525 5.83984 98.1931 5.54297C98.8337 5.23828 99.5759 5.08594 100.42 5.08594C101.013 5.08594 101.56 5.17188 102.06 5.34375C102.56 5.50781 102.994 5.76953 103.361 6.12891C103.728 6.48828 104.013 6.94922 104.217 7.51172C104.42 8.07422 104.521 8.75391 104.521 9.55078V18H102.353V9.65625C102.353 8.99219 102.24 8.46094 102.013 8.0625C101.795 7.66406 101.482 7.375 101.076 7.19531C100.67 7.00781 100.193 6.91406 99.6462 6.91406C99.0056 6.91406 98.4705 7.02734 98.0408 7.25391C97.6111 7.48047 97.2673 7.79297 97.0095 8.19141C96.7517 8.58984 96.5642 9.04688 96.447 9.5625C96.3377 10.0703 96.283 10.6094 96.283 11.1797ZM104.498 9.98438L103.045 10.4297C103.052 9.73438 103.166 9.06641 103.385 8.42578C103.611 7.78516 103.935 7.21484 104.357 6.71484C104.787 6.21484 105.314 5.82031 105.939 5.53125C106.564 5.23438 107.279 5.08594 108.084 5.08594C108.763 5.08594 109.365 5.17578 109.888 5.35547C110.42 5.53516 110.865 5.8125 111.224 6.1875C111.592 6.55469 111.869 7.02734 112.056 7.60547C112.244 8.18359 112.338 8.87109 112.338 9.66797V18H110.158V9.64453C110.158 8.93359 110.045 8.38281 109.818 7.99219C109.599 7.59375 109.287 7.31641 108.881 7.16016C108.482 6.99609 108.006 6.91406 107.451 6.91406C106.974 6.91406 106.552 6.99609 106.185 7.16016C105.818 7.32422 105.51 7.55078 105.26 7.83984C105.01 8.12109 104.818 8.44531 104.685 8.8125C104.56 9.17969 104.498 9.57031 104.498 9.98438ZM122.375 15.832V9.30469C122.375 8.80469 122.274 8.37109 122.071 8.00391C121.875 7.62891 121.579 7.33984 121.18 7.13672C120.782 6.93359 120.29 6.83203 119.704 6.83203C119.157 6.83203 118.676 6.92578 118.262 7.11328C117.856 7.30078 117.536 7.54688 117.301 7.85156C117.075 8.15625 116.961 8.48438 116.961 8.83594H114.793C114.793 8.38281 114.911 7.93359 115.145 7.48828C115.379 7.04297 115.715 6.64062 116.153 6.28125C116.598 5.91406 117.129 5.625 117.747 5.41406C118.372 5.19531 119.067 5.08594 119.832 5.08594C120.754 5.08594 121.567 5.24219 122.27 5.55469C122.981 5.86719 123.536 6.33984 123.934 6.97266C124.34 7.59766 124.543 8.38281 124.543 9.32812V15.2344C124.543 15.6562 124.579 16.1055 124.649 16.582C124.727 17.0586 124.84 17.4688 124.989 17.8125V18H122.727C122.618 17.75 122.532 17.418 122.469 17.0039C122.407 16.582 122.375 16.1914 122.375 15.832ZM122.75 10.3125L122.774 11.8359H120.582C119.965 11.8359 119.415 11.8867 118.93 11.9883C118.446 12.082 118.04 12.2266 117.711 12.4219C117.383 12.6172 117.133 12.8633 116.961 13.1602C116.79 13.4492 116.704 13.7891 116.704 14.1797C116.704 14.5781 116.793 14.9414 116.973 15.2695C117.153 15.5977 117.422 15.8594 117.782 16.0547C118.149 16.2422 118.598 16.3359 119.129 16.3359C119.793 16.3359 120.379 16.1953 120.887 15.9141C121.395 15.6328 121.797 15.2891 122.094 14.8828C122.399 14.4766 122.563 14.082 122.586 13.6992L123.512 14.7422C123.457 15.0703 123.309 15.4336 123.067 15.832C122.825 16.2305 122.5 16.6133 122.094 16.9805C121.696 17.3398 121.219 17.6406 120.665 17.8828C120.118 18.1172 119.5 18.2344 118.813 18.2344C117.954 18.2344 117.2 18.0664 116.551 17.7305C115.911 17.3945 115.411 16.9453 115.051 16.3828C114.7 15.8125 114.524 15.1758 114.524 14.4727C114.524 13.793 114.657 13.1953 114.922 12.6797C115.188 12.1562 115.571 11.7227 116.071 11.3789C116.571 11.0273 117.172 10.7617 117.875 10.582C118.579 10.4023 119.364 10.3125 120.231 10.3125H122.75Z" fill="#202A37"/>
</svg>
