<svg width="51" height="52" viewBox="0 0 51 52" fill="none" xmlns="http://www.w3.org/2000/svg">
<circle cx="25.5" cy="26.396" r="25.5" fill="#F4F5F6"/>
<path fill-rule="evenodd" clip-rule="evenodd" d="M13.7622 18.8823C18.3348 18.8823 22.4791 17.0487 25.5001 14.0767C28.521 17.0486 32.6653 18.8822 37.2379 18.8822C37.6141 18.8822 37.9874 18.8698 38.3574 18.8454C38.609 20.1198 38.7409 21.4373 38.7409 22.7856C38.7409 31.4408 33.3053 38.8264 25.6616 41.7151C18.0188 38.8259 12.5841 31.4408 12.5841 22.7863C12.5841 21.4442 12.7148 20.1326 12.9642 18.8636C13.2286 18.876 13.4947 18.8823 13.7622 18.8823ZM28.4622 27.0961C28.4622 28.2491 27.7651 29.2394 26.7694 29.6684V32.7296H24.5557V29.6685C23.5599 29.2395 22.8628 28.2492 22.8628 27.0961C22.8628 25.5499 24.1163 24.2964 25.6625 24.2964C27.2087 24.2964 28.4622 25.5499 28.4622 27.0961Z" fill="#33D871"/>
</svg>
