<svg width="69" height="70" viewBox="0 0 69 70" fill="none" xmlns="http://www.w3.org/2000/svg">
<circle cx="34.5" cy="35.396" r="34.5" fill="#EBFBF1"/>
<path d="M32.1289 38.9644C32.1289 37.6883 32.2839 36.672 32.5938 35.9155C32.9036 35.159 33.4688 34.4162 34.2891 33.687C35.1185 32.9487 35.6699 32.3517 35.9434 31.896C36.2168 31.4312 36.3535 30.9435 36.3535 30.4331C36.3535 28.8927 35.6426 28.1226 34.2207 28.1226C33.5462 28.1226 33.0039 28.3322 32.5938 28.7515C32.1927 29.1616 31.9831 29.7313 31.9648 30.4604H28C28.0182 28.7196 28.5788 27.3569 29.6816 26.3726C30.7936 25.3882 32.3066 24.896 34.2207 24.896C36.153 24.896 37.6523 25.3654 38.7188 26.3042C39.7852 27.2339 40.3184 28.5509 40.3184 30.2554C40.3184 31.0301 40.1452 31.7638 39.7988 32.4565C39.4525 33.1401 38.8464 33.9012 37.9805 34.7397L36.873 35.7925C36.1803 36.4578 35.7839 37.2371 35.6836 38.1304L35.6289 38.9644H32.1289ZM31.7324 43.1616C31.7324 42.5509 31.9375 42.0496 32.3477 41.6577C32.7669 41.2567 33.3001 41.0562 33.9473 41.0562C34.5944 41.0562 35.123 41.2567 35.5332 41.6577C35.9525 42.0496 36.1621 42.5509 36.1621 43.1616C36.1621 43.7632 35.957 44.2599 35.5469 44.6519C35.1458 45.0438 34.6126 45.2397 33.9473 45.2397C33.2819 45.2397 32.7441 45.0438 32.334 44.6519C31.9329 44.2599 31.7324 43.7632 31.7324 43.1616Z" fill="#33D871"/>
</svg>
