<svg width="21" height="16" viewBox="0 0 21 16" fill="none" xmlns="http://www.w3.org/2000/svg">
<path d="M0.369141 15.7184V10.9723C0.369141 9.6637 0.623047 8.32581 1.13086 6.95862C1.6582 5.59143 2.33203 4.31213 3.15234 3.12073C3.99219 1.90979 4.86133 0.894165 5.75977 0.0738525L10.0664 2.4176C9.46094 3.53088 8.89453 4.76135 8.36719 6.10901C7.85938 7.45667 7.60547 9.08752 7.60547 11.0016V15.7184H0.369141ZM10.6523 15.7184V10.9723C10.6523 9.6637 10.9062 8.32581 11.4141 6.95862C11.9414 5.59143 12.6152 4.31213 13.4355 3.12073C14.2754 1.90979 15.1445 0.894165 16.043 0.0738525L20.3496 2.4176C19.7441 3.53088 19.1777 4.76135 18.6504 6.10901C18.1426 7.45667 17.8887 9.08752 17.8887 11.0016V15.7184H10.6523Z" fill="#33D871"/>
</svg>
