<svg width="24" height="20" viewBox="0 0 24 20" fill="none" xmlns="http://www.w3.org/2000/svg">
<path d="M23.2973 3.12327C22.4398 3.51304 21.5155 3.76918 20.5577 3.89168C21.5377 3.30145 22.295 2.366 22.6514 1.24122C21.727 1.79804 20.7025 2.18781 19.6223 2.41054C18.7425 1.45281 17.5064 0.895996 16.1032 0.895996C13.4861 0.895996 11.348 3.03418 11.348 5.6735C11.348 6.05213 11.3925 6.41963 11.4705 6.76486C7.50591 6.56441 3.97568 4.66009 1.62591 1.77577C1.21386 2.47736 0.98 3.30145 0.98 4.17009C0.98 5.82941 1.81523 7.29941 3.10705 8.13463C2.31636 8.13463 1.58136 7.91191 0.935455 7.57781C0.935455 7.57781 0.935455 7.57781 0.935455 7.61122C0.935455 9.92759 2.58364 11.8653 4.76636 12.2996C4.36545 12.411 3.94227 12.4667 3.50795 12.4667C3.20727 12.4667 2.90659 12.4333 2.61705 12.3776C3.21841 14.2596 4.96682 15.6628 7.07159 15.6962C5.44568 16.988 3.38545 17.7453 1.13591 17.7453C0.757273 17.7453 0.378636 17.723 0 17.6785C2.11591 19.0371 4.63273 19.8278 7.32773 19.8278C16.1032 19.8278 20.9252 12.5446 20.9252 6.23031C20.9252 6.01872 20.9252 5.81827 20.9141 5.60668C21.8495 4.9385 22.6514 4.09213 23.2973 3.12327Z" fill="#AFB3B7"/>
</svg>
