<svg width="343" height="555" viewBox="0 0 343 555" fill="none" xmlns="http://www.w3.org/2000/svg">
<path d="M167.141 64.2117C169.624 61.8518 173.521 61.8518 176.004 64.2117L184.208 72.0087C186.141 73.8458 189.007 74.2998 191.413 73.1499L201.625 68.2697C204.716 66.7926 208.422 67.9968 210.054 71.0085L215.447 80.959C216.718 83.3036 219.303 84.621 221.947 84.2709L233.167 82.7851C236.563 82.3354 239.716 84.626 240.337 87.9947L242.392 99.1247C242.876 101.747 244.928 103.799 247.55 104.283L258.68 106.337C262.049 106.959 264.339 110.112 263.89 113.508L262.404 124.728C262.054 127.371 263.371 129.957 265.716 131.228L275.666 136.621C278.678 138.253 279.882 141.959 278.405 145.05L273.525 155.262C272.375 157.668 272.829 160.534 274.666 162.467L282.463 170.671C284.823 173.154 284.823 177.051 282.463 179.534L274.666 187.738C272.829 189.671 272.375 192.537 273.525 194.943L278.405 205.155C279.882 208.246 278.678 211.952 275.666 213.584L265.716 218.977C263.371 220.248 262.054 222.833 262.404 225.477L263.89 236.697C264.339 240.093 262.049 243.246 258.68 243.867L247.55 245.921C244.928 246.405 242.876 248.457 242.392 251.08L240.337 262.21C239.716 265.579 236.563 267.869 233.167 267.419L221.947 265.934C219.303 265.584 216.718 266.901 215.447 269.246L210.054 279.196C208.422 282.208 204.716 283.412 201.625 281.935L191.413 277.055C189.007 275.905 186.141 276.359 184.208 278.196L176.004 285.993C173.521 288.353 169.624 288.353 167.141 285.993L158.937 278.196C157.004 276.359 154.138 275.905 151.732 277.055L141.52 281.935C138.429 283.412 134.723 282.208 133.091 279.196L127.698 269.246C126.427 266.901 123.842 265.584 121.198 265.934L109.978 267.419C106.582 267.869 103.429 265.579 102.807 262.21L100.753 251.08C100.269 248.457 98.2174 246.405 95.595 245.921L84.4649 243.867C81.0962 243.246 78.8057 240.093 79.2554 236.697L80.7411 225.477C81.0912 222.833 79.7738 220.248 77.4292 218.977L67.4787 213.584C64.467 211.952 63.2628 208.246 64.7399 205.155L69.6201 194.943C70.77 192.537 70.3161 189.671 68.4789 187.738L60.6819 179.534C58.322 177.051 58.322 173.154 60.6819 170.671L68.4789 162.467C70.3161 160.534 70.77 157.668 69.6201 155.262L64.7399 145.05C63.2628 141.959 64.467 138.253 67.4787 136.621L77.4292 131.228C79.7738 129.957 81.0912 127.371 80.7411 124.728L79.2554 113.508C78.8057 110.112 81.0962 106.959 84.4649 106.337L95.595 104.283C98.2174 103.799 100.269 101.747 100.753 99.1247L102.807 87.9947C103.429 84.626 106.582 82.3354 109.978 82.7851L121.198 84.2709C123.842 84.621 126.427 83.3036 127.698 80.959L133.091 71.0085C134.723 67.9968 138.429 66.7926 141.52 68.2697L151.732 73.1499C154.138 74.2998 157.004 73.8458 158.937 72.0087L167.141 64.2117Z" fill="#2CBB62"/>
<rect x="141.897" y="204.742" width="112.802" height="16.4432" rx="8.22159" transform="rotate(-45 141.897 204.742)" fill="white"/>
<rect x="128.362" y="167.936" width="52.0512" height="16.4432" rx="8.22159" transform="rotate(45 128.362 167.936)" fill="white"/>
<path d="M279.037 343.07L291.373 353.266L184.605 428.478L118.656 406.856L237.479 338.205L253.155 343.07L261.739 339.826L279.037 343.07Z" fill="#F9B6A8"/>
<path d="M92.2505 371.844C108.083 382.684 137.682 402.454 160.736 400.781C227.765 395.916 212.637 386.691 282.658 359.607L290.767 374.498L196.124 452.041L174 555H97.7188L136 452.041L70.2573 382.606L92.2505 371.844Z" fill="#F9B6A8"/>
<path d="M200.075 374.259L200.075 377.228L252.654 342.538L200.075 374.259Z" fill="#CC395D"/>
<path d="M221.185 377.667V382.723L279.259 343.119L276.574 342.538L221.185 377.667Z" fill="#CC395D"/>
<path d="M226.364 394.735V399.792L252.794 380.437L281.753 359.607L226.364 394.735Z" fill="#CC395D"/>
<rect x="170" y="0.676758" width="4" height="25" rx="2" fill="#B3E0D0"/>
<rect x="170" y="319.038" width="4" height="25" rx="2" fill="#B3E0D0"/>
<rect x="212.39" y="13.8926" width="4" height="8.67636" rx="2" transform="rotate(15 212.39 13.8926)" fill="#B3E0D0"/>
<rect x="132.104" y="313.522" width="4" height="10.8087" rx="2" transform="rotate(15 132.104 313.522)" fill="#B3E0D0"/>
<rect x="127.189" y="12.8489" width="4" height="12.9813" rx="2" transform="rotate(-15 127.189 12.8489)" fill="#B3E0D0"/>
<rect x="208.032" y="314.558" width="4" height="9.14432" rx="2" transform="rotate(-15 208.032 314.558)" fill="#B3E0D0"/>
<rect x="319.541" y="85.0261" width="4" height="25" rx="2" transform="rotate(60 319.541 85.0261)" fill="#B3E0D0"/>
<rect x="43.8317" y="244.207" width="4" height="25" rx="2" transform="rotate(60 43.8317 244.207)" fill="#B3E0D0"/>
<rect x="329.29" y="128.345" width="4" height="8.67636" rx="2" transform="rotate(75 329.29 128.345)" fill="#B3E0D0"/>
<rect x="29.6605" y="208.631" width="4" height="10.8087" rx="2" transform="rotate(75 29.6605 208.631)" fill="#B3E0D0"/>
<rect x="287.594" y="54.0371" width="4" height="12.9813" rx="2" transform="rotate(45 287.594 54.0371)" fill="#B3E0D0"/>
<rect x="66.7277" y="274.903" width="4" height="9.14432" rx="2" transform="rotate(45 66.7277 274.903)" fill="#B3E0D0"/>
<rect x="321.262" y="256.707" width="4" height="25" rx="2" transform="rotate(120 321.262 256.707)" fill="#B3E0D0"/>
<rect x="45.5531" y="97.5259" width="4" height="25" rx="2" transform="rotate(120 45.5531 97.5259)" fill="#B3E0D0"/>
<rect x="288.622" y="286.81" width="4" height="8.67636" rx="2" transform="rotate(135 288.622 286.81)" fill="#B3E0D0"/>
<rect x="69.2775" y="67.4653" width="4" height="10.8087" rx="2" transform="rotate(135 69.2775 67.4653)" fill="#B3E0D0"/>
<rect x="332.126" y="213.545" width="4" height="12.9813" rx="2" transform="rotate(105 332.126 213.545)" fill="#B3E0D0"/>
<rect x="30.4171" y="132.703" width="4" height="9.14432" rx="2" transform="rotate(105 30.4171 132.703)" fill="#B3E0D0"/>
</svg>
